<?xml version="1.0" encoding="UTF-8"?>
<svg xmlns="http://www.w3.org/2000/svg" xmlns:xlink="http://www.w3.org/1999/xlink" width="269px" height="44px" viewBox="0 0 270 44" version="1.1">
<g id="surface1">
<path style=" stroke:none;fill-rule:nonzero;fill:rgb(23.529412%,22.352941%,22.745098%);fill-opacity:1;" d="M 117.972656 19.636719 L 111.972656 19.636719 C 111.835938 19.636719 111.726562 19.527344 111.726562 19.386719 L 111.726562 17.839844 C 111.726562 17.707031 111.832031 17.59375 111.96875 17.59375 C 111.96875 17.59375 115.402344 17.582031 116.574219 17.59375 C 117.921875 17.605469 118.207031 19.277344 118.21875 19.347656 C 118.226562 19.417969 118.207031 19.492188 118.160156 19.546875 C 118.113281 19.601562 118.042969 19.636719 117.972656 19.636719 "/>
<path style=" stroke:none;fill-rule:nonzero;fill:rgb(23.529412%,22.352941%,22.745098%);fill-opacity:1;" d="M 212.332031 36.601562 L 211.269531 36.601562 C 209.710938 36.59375 209.035156 35.496094 209.007812 35.449219 L 205.660156 30.726562 L 198.296875 30.726562 L 198.296875 36.355469 C 198.296875 36.488281 198.183594 36.601562 198.050781 36.601562 L 195.507812 36.601562 C 195.375 36.601562 195.265625 36.488281 195.265625 36.355469 L 195.265625 20.976562 C 195.265625 20.839844 195.375 20.726562 195.507812 20.726562 L 207.597656 20.726562 C 209.269531 20.726562 210.597656 21.191406 211.558594 22.097656 C 212.523438 23.015625 213.011719 24.261719 213.011719 25.8125 C 213.011719 27.171875 212.613281 28.285156 211.824219 29.121094 C 211.171875 29.816406 210.289062 30.285156 209.203125 30.523438 L 213.109375 36.210938 C 213.160156 36.285156 213.164062 36.382812 213.125 36.464844 C 213.082031 36.546875 213 36.597656 212.910156 36.597656 C 212.910156 36.597656 212.816406 36.597656 212.328125 36.597656 M 198.296875 27.9375 L 207.21875 27.9375 C 209.035156 27.9375 209.914062 27.242188 209.914062 25.8125 C 209.914062 24.265625 208.957031 23.511719 206.984375 23.511719 L 198.296875 23.511719 Z M 198.296875 27.9375 "/>
<path style=" stroke:none;fill-rule:nonzero;fill:rgb(23.529412%,22.352941%,22.745098%);fill-opacity:1;" d="M 218.011719 36.601562 C 216.257812 36.601562 215.730469 34.996094 215.699219 34.050781 C 215.699219 34.03125 215.699219 34.011719 215.703125 33.996094 L 215.703125 20.953125 C 215.703125 20.816406 215.816406 20.707031 215.949219 20.707031 L 231.40625 20.707031 C 231.542969 20.707031 231.65625 20.816406 231.65625 20.953125 L 231.65625 23.246094 C 231.65625 23.382812 231.542969 23.492188 231.40625 23.492188 L 218.738281 23.492188 L 218.738281 26.941406 L 227.46875 26.941406 C 227.605469 26.941406 227.714844 27.054688 227.714844 27.191406 L 227.714844 29.480469 C 227.714844 29.617188 227.605469 29.726562 227.46875 29.726562 L 218.738281 29.726562 L 218.738281 33.773438 C 220.207031 33.769531 227.757812 33.757812 229.324219 33.773438 C 230.851562 33.785156 231.507812 35.421875 231.640625 36.285156 C 231.640625 36.296875 231.648438 36.308594 231.648438 36.320312 C 231.648438 36.460938 231.535156 36.59375 231.398438 36.59375 Z M 218.011719 36.601562 "/>
<path style=" stroke:none;fill-rule:nonzero;fill:rgb(23.529412%,22.352941%,22.745098%);fill-opacity:1;" d="M 253.152344 36.597656 L 250.382812 36.597656 C 250.289062 36.597656 250.203125 36.546875 250.160156 36.464844 L 248.464844 33.15625 L 241.816406 33.15625 C 241.75 33.15625 241.683594 33.132812 241.640625 33.082031 C 241.59375 33.035156 241.570312 32.96875 241.570312 32.902344 C 241.574219 32.804688 241.671875 30.605469 243.574219 30.375 C 243.597656 30.367188 243.628906 30.359375 243.65625 30.359375 L 243.78125 30.359375 C 243.828125 30.355469 243.855469 30.351562 243.886719 30.351562 L 246.964844 30.351562 L 243.484375 23.722656 L 236.75 36.46875 C 236.707031 36.550781 236.621094 36.601562 236.53125 36.601562 L 233.761719 36.601562 C 233.675781 36.601562 233.597656 36.558594 233.550781 36.480469 C 233.507812 36.40625 233.503906 36.316406 233.542969 36.238281 L 241.675781 20.863281 C 241.71875 20.785156 241.800781 20.730469 241.894531 20.730469 L 245.082031 20.730469 C 245.171875 20.730469 245.257812 20.785156 245.300781 20.863281 L 253.375 36.234375 C 253.414062 36.3125 253.410156 36.402344 253.367188 36.476562 C 253.324219 36.554688 253.242188 36.597656 253.15625 36.597656 "/>
<path style=" stroke:none;fill-rule:nonzero;fill:rgb(23.529412%,22.352941%,22.745098%);fill-opacity:1;" d="M 257.277344 36.597656 C 255.707031 36.597656 255.054688 35.289062 254.96875 34.148438 C 254.960938 34.125 254.96875 20.964844 254.96875 20.964844 C 254.96875 20.828125 255.066406 20.71875 255.203125 20.71875 L 257.742188 20.71875 C 257.878906 20.71875 257.992188 20.828125 257.992188 20.964844 L 257.992188 33.769531 L 267.523438 33.765625 C 269.28125 33.765625 269.800781 35.382812 269.835938 36.328125 C 269.835938 36.398438 269.816406 36.460938 269.765625 36.511719 C 269.722656 36.558594 269.65625 36.585938 269.589844 36.585938 L 257.273438 36.597656 Z M 257.277344 36.597656 "/>
<path style=" stroke:none;fill-rule:nonzero;fill:rgb(23.529412%,22.352941%,22.745098%);fill-opacity:1;" d="M 150.199219 36.597656 L 147.777344 36.59375 C 147.640625 36.59375 147.53125 36.484375 147.53125 36.347656 L 147.53125 20.972656 C 147.53125 20.898438 147.5625 20.832031 147.617188 20.78125 C 147.671875 20.734375 147.746094 20.714844 147.816406 20.726562 C 147.925781 20.746094 150.425781 21.175781 150.445312 23.167969 C 150.460938 24.988281 150.445312 36.242188 150.445312 36.351562 C 150.445312 36.421875 150.417969 36.480469 150.371094 36.527344 C 150.324219 36.574219 150.261719 36.601562 150.199219 36.601562 "/>
<path style=" stroke:none;fill-rule:nonzero;fill:rgb(23.529412%,22.352941%,22.745098%);fill-opacity:1;" d="M 161.726562 36.601562 L 159.1875 36.601562 C 159.046875 36.601562 158.9375 36.488281 158.9375 36.351562 L 158.9375 23.507812 L 152.878906 23.507812 C 152.742188 23.507812 152.632812 23.398438 152.632812 23.261719 L 152.625 20.953125 C 152.625 20.886719 152.652344 20.824219 152.699219 20.777344 C 152.746094 20.730469 152.808594 20.707031 152.871094 20.707031 C 152.871094 20.707031 164.234375 20.691406 165.964844 20.707031 C 165.972656 20.707031 166.003906 20.710938 166.011719 20.710938 L 166.140625 20.710938 C 166.179688 20.710938 166.21875 20.71875 166.253906 20.734375 C 167.546875 20.9375 168.128906 22.382812 168.269531 23.222656 C 168.28125 23.296875 168.261719 23.367188 168.210938 23.421875 C 168.167969 23.480469 168.097656 23.507812 168.023438 23.507812 L 161.972656 23.507812 L 161.972656 36.351562 C 161.972656 36.488281 161.863281 36.601562 161.726562 36.601562 "/>
<path style=" stroke:none;fill-rule:nonzero;fill:rgb(23.529412%,22.352941%,22.745098%);fill-opacity:1;" d="M 136.390625 36.605469 L 128.304688 36.605469 C 126.546875 36.605469 126.023438 35.003906 125.992188 34.058594 C 125.992188 34.035156 125.996094 20.957031 125.996094 20.957031 C 125.996094 20.820312 126.105469 20.710938 126.242188 20.710938 L 135.941406 20.710938 C 138.660156 20.710938 140.847656 21.449219 142.449219 22.90625 C 144.054688 24.371094 144.867188 26.355469 144.867188 28.808594 C 144.867188 31.0625 144.007812 32.964844 142.304688 34.464844 C 140.75 35.839844 138.828125 36.582031 136.546875 36.601562 C 136.480469 36.601562 136.4375 36.601562 136.390625 36.601562 M 129.03125 33.777344 L 136.640625 33.777344 C 138.089844 33.777344 139.292969 33.304688 140.222656 32.371094 C 141.148438 31.4375 141.621094 30.21875 141.621094 28.746094 C 141.621094 27.179688 141.113281 25.898438 140.121094 24.941406 C 139.121094 23.980469 137.785156 23.496094 136.152344 23.496094 L 129.027344 23.496094 L 129.027344 33.777344 Z M 129.03125 33.777344 "/>
<path style=" stroke:none;fill-rule:nonzero;fill:rgb(23.529412%,22.352941%,22.745098%);fill-opacity:1;" d="M 75.132812 37.003906 C 72.375 37.003906 70.054688 36.300781 68.226562 34.917969 C 66.125 33.320312 65.058594 31.199219 65.058594 28.609375 C 65.058594 26.023438 66.136719 23.957031 68.269531 22.34375 C 70.109375 20.949219 72.421875 20.238281 75.132812 20.238281 C 79.035156 20.238281 82.070312 21.613281 84.15625 24.320312 C 84.238281 24.429688 84.21875 24.582031 84.113281 24.667969 C 84.082031 24.695312 83.257812 25.34375 82.234375 25.34375 C 81.691406 25.34375 81.191406 25.160156 80.753906 24.800781 C 80.480469 24.578125 80.179688 24.371094 79.835938 24.171875 C 78.554688 23.4375 76.972656 23.066406 75.132812 23.066406 C 73.082031 23.066406 71.390625 23.597656 70.109375 24.644531 C 68.824219 25.695312 68.199219 26.992188 68.199219 28.609375 C 68.199219 30.230469 68.816406 31.601562 70.089844 32.628906 C 71.355469 33.65625 73.101562 34.175781 75.277344 34.175781 C 77.90625 34.175781 79.996094 33.351562 81.492188 31.730469 C 81.570312 31.644531 81.695312 31.625 81.792969 31.683594 L 83.972656 32.890625 C 84.039062 32.925781 84.082031 32.992188 84.09375 33.066406 C 84.109375 33.136719 84.089844 33.210938 84.042969 33.269531 C 82.917969 34.578125 81.632812 35.539062 80.210938 36.125 C 78.796875 36.707031 77.089844 37.003906 75.132812 37.003906 "/>
<path style=" stroke:none;fill-rule:nonzero;fill:rgb(23.529412%,22.352941%,22.745098%);fill-opacity:1;" d="M 103.960938 36.601562 L 102.898438 36.601562 C 101.339844 36.59375 100.667969 35.496094 100.640625 35.449219 L 97.292969 30.726562 L 89.929688 30.726562 L 89.929688 36.355469 C 89.929688 36.488281 89.816406 36.601562 89.683594 36.601562 L 87.140625 36.601562 C 87.003906 36.601562 86.894531 36.488281 86.894531 36.355469 L 86.894531 20.976562 C 86.894531 20.839844 87.003906 20.726562 87.140625 20.726562 L 99.230469 20.726562 C 100.898438 20.726562 102.230469 21.191406 103.191406 22.097656 C 104.15625 23.015625 104.644531 24.261719 104.644531 25.8125 C 104.644531 27.171875 104.246094 28.285156 103.457031 29.121094 C 102.800781 29.816406 101.921875 30.285156 100.832031 30.523438 L 104.742188 36.210938 C 104.792969 36.285156 104.796875 36.382812 104.757812 36.464844 C 104.71875 36.546875 104.632812 36.597656 104.542969 36.597656 C 104.542969 36.597656 104.449219 36.597656 103.964844 36.597656 M 89.929688 27.9375 L 98.847656 27.9375 C 100.664062 27.9375 101.546875 27.242188 101.546875 25.8125 C 101.546875 24.265625 100.589844 23.511719 98.617188 23.511719 L 89.925781 23.511719 L 89.925781 27.9375 Z M 89.929688 27.9375 "/>
<path style=" stroke:none;fill-rule:nonzero;fill:rgb(23.529412%,22.352941%,22.745098%);fill-opacity:1;" d="M 109.65625 36.601562 C 107.898438 36.601562 107.375 34.996094 107.339844 34.050781 C 107.339844 34.03125 107.339844 34.011719 107.347656 33.996094 L 107.347656 20.953125 C 107.347656 20.816406 107.457031 20.707031 107.59375 20.707031 L 123.050781 20.707031 C 123.1875 20.707031 123.296875 20.816406 123.296875 20.953125 L 123.296875 23.246094 C 123.296875 23.382812 123.1875 23.492188 123.050781 23.492188 L 110.382812 23.492188 L 110.382812 26.941406 L 119.113281 26.941406 C 119.25 26.941406 119.359375 27.054688 119.359375 27.191406 L 119.359375 29.480469 C 119.359375 29.617188 119.25 29.726562 119.113281 29.726562 L 110.382812 29.726562 L 110.382812 33.773438 C 111.851562 33.769531 119.402344 33.757812 120.96875 33.773438 C 122.5 33.785156 123.152344 35.421875 123.289062 36.285156 C 123.289062 36.296875 123.292969 36.308594 123.292969 36.320312 C 123.292969 36.460938 123.179688 36.59375 123.042969 36.59375 Z M 109.65625 36.601562 "/>
<path style=" stroke:none;fill-rule:nonzero;fill:rgb(23.529412%,22.352941%,22.745098%);fill-opacity:1;" d="M 178.5 37.011719 C 175.75 37.011719 173.417969 36.300781 171.578125 34.902344 C 169.460938 33.304688 168.386719 31.191406 168.386719 28.617188 C 168.386719 26.042969 169.476562 23.980469 171.621094 22.351562 C 173.492188 20.941406 175.808594 20.226562 178.5 20.226562 C 181.195312 20.226562 183.523438 20.941406 185.363281 22.355469 C 187.492188 23.980469 188.574219 26.085938 188.574219 28.617188 C 188.574219 31.148438 187.5 33.324219 185.382812 34.925781 C 183.542969 36.308594 181.226562 37.011719 178.5 37.011719 M 178.5 23.050781 C 176.4375 23.050781 174.742188 23.585938 173.449219 24.640625 C 172.160156 25.695312 171.527344 26.996094 171.527344 28.617188 C 171.527344 30.238281 172.144531 31.609375 173.40625 32.632812 C 174.667969 33.660156 176.382812 34.183594 178.5 34.183594 C 180.621094 34.183594 182.3125 33.65625 183.566406 32.625 C 184.804688 31.605469 185.433594 30.253906 185.433594 28.617188 C 185.433594 26.890625 184.71875 25.527344 183.246094 24.449219 C 181.984375 23.523438 180.390625 23.050781 178.5 23.050781 Z M 178.5 23.050781 "/>
<path style=" stroke:none;fill-rule:nonzero;fill:rgb(23.529412%,22.352941%,22.745098%);fill-opacity:1;" d="M 87.589844 14.679688 C 87.488281 14.679688 87.402344 14.671875 87.328125 14.660156 C 87.25 14.648438 87.1875 14.632812 87.140625 14.617188 C 87.0625 14.589844 87.003906 14.546875 86.964844 14.492188 C 86.929688 14.4375 86.914062 14.375 86.914062 14.304688 L 86.914062 7.160156 C 86.914062 7.089844 86.933594 7.023438 86.976562 6.96875 C 87.015625 6.914062 87.074219 6.871094 87.152344 6.847656 C 87.199219 6.832031 87.261719 6.816406 87.339844 6.804688 C 87.484375 6.78125 87.722656 6.785156 87.859375 6.804688 C 87.933594 6.816406 87.996094 6.832031 88.042969 6.847656 C 88.121094 6.875 88.179688 6.917969 88.214844 6.972656 C 88.25 7.027344 88.269531 7.089844 88.269531 7.160156 L 88.269531 14.304688 C 88.269531 14.371094 88.25 14.4375 88.214844 14.488281 C 88.179688 14.542969 88.121094 14.589844 88.042969 14.617188 C 87.996094 14.632812 87.933594 14.648438 87.859375 14.65625 C 87.789062 14.667969 87.699219 14.675781 87.59375 14.675781 "/>
<path style=" stroke:none;fill-rule:nonzero;fill:rgb(23.529412%,22.352941%,22.745098%);fill-opacity:1;" d="M 99.289062 14.679688 C 99.191406 14.679688 99.101562 14.671875 99.03125 14.660156 C 98.949219 14.648438 98.886719 14.632812 98.839844 14.617188 C 98.765625 14.589844 98.710938 14.550781 98.671875 14.492188 C 98.632812 14.4375 98.613281 14.375 98.613281 14.304688 L 98.613281 8.75 L 96.339844 14.40625 C 96.316406 14.457031 96.285156 14.503906 96.246094 14.539062 C 96.203125 14.578125 96.152344 14.605469 96.089844 14.628906 C 96.035156 14.644531 95.976562 14.660156 95.90625 14.664062 C 95.78125 14.679688 95.582031 14.679688 95.457031 14.664062 C 95.382812 14.652344 95.324219 14.640625 95.277344 14.625 C 95.210938 14.601562 95.164062 14.570312 95.125 14.535156 C 95.078125 14.496094 95.046875 14.445312 95.027344 14.394531 L 92.878906 8.804688 L 92.878906 14.304688 C 92.878906 14.375 92.859375 14.4375 92.824219 14.492188 C 92.785156 14.550781 92.726562 14.589844 92.648438 14.617188 C 92.601562 14.636719 92.539062 14.652344 92.464844 14.660156 C 92.324219 14.683594 92.074219 14.683594 91.929688 14.660156 C 91.851562 14.648438 91.789062 14.632812 91.742188 14.617188 C 91.664062 14.589844 91.609375 14.542969 91.570312 14.484375 C 91.539062 14.433594 91.523438 14.371094 91.523438 14.308594 L 91.523438 7.460938 C 91.523438 7.242188 91.589844 7.078125 91.722656 6.972656 C 91.839844 6.875 91.976562 6.824219 92.121094 6.824219 L 92.726562 6.824219 C 92.867188 6.824219 92.992188 6.839844 93.101562 6.867188 C 93.214844 6.894531 93.320312 6.941406 93.410156 7.003906 C 93.5 7.066406 93.574219 7.148438 93.632812 7.246094 C 93.6875 7.335938 93.734375 7.4375 93.773438 7.554688 L 95.742188 12.546875 L 97.792969 7.5625 C 97.835938 7.441406 97.886719 7.332031 97.945312 7.238281 C 98.007812 7.140625 98.078125 7.0625 98.15625 7 C 98.234375 6.9375 98.324219 6.890625 98.421875 6.863281 C 98.511719 6.839844 98.613281 6.824219 98.726562 6.824219 L 99.363281 6.824219 C 99.441406 6.824219 99.515625 6.835938 99.585938 6.859375 C 99.667969 6.886719 99.738281 6.929688 99.792969 6.984375 C 99.847656 7.039062 99.890625 7.105469 99.925781 7.183594 C 99.957031 7.261719 99.972656 7.355469 99.972656 7.457031 L 99.972656 14.304688 C 99.972656 14.371094 99.953125 14.4375 99.917969 14.492188 C 99.878906 14.546875 99.820312 14.589844 99.742188 14.617188 C 99.695312 14.632812 99.632812 14.648438 99.558594 14.660156 C 99.492188 14.667969 99.402344 14.675781 99.292969 14.675781 "/>
<path style=" stroke:none;fill-rule:nonzero;fill:rgb(23.529412%,22.352941%,22.745098%);fill-opacity:1;" d="M 106.242188 14.75 C 105.660156 14.75 105.148438 14.664062 104.722656 14.488281 C 104.289062 14.308594 103.925781 14.046875 103.640625 13.707031 C 103.359375 13.371094 103.144531 12.945312 103.007812 12.453125 C 102.875 11.964844 102.808594 11.402344 102.808594 10.773438 C 102.808594 10.144531 102.882812 9.617188 103.027344 9.121094 C 103.175781 8.617188 103.402344 8.183594 103.699219 7.832031 C 104.003906 7.476562 104.382812 7.195312 104.832031 7.003906 C 105.277344 6.8125 105.804688 6.714844 106.394531 6.714844 C 106.984375 6.714844 107.464844 6.804688 107.890625 6.976562 C 108.324219 7.152344 108.6875 7.414062 108.976562 7.75 C 109.261719 8.085938 109.480469 8.503906 109.617188 8.992188 C 109.753906 9.472656 109.824219 10.03125 109.824219 10.648438 C 109.824219 11.265625 109.75 11.832031 109.601562 12.328125 C 109.453125 12.832031 109.230469 13.273438 108.933594 13.628906 C 108.632812 13.988281 108.253906 14.269531 107.800781 14.464844 C 107.355469 14.652344 106.832031 14.75 106.242188 14.75 M 106.332031 7.933594 C 105.9375 7.933594 105.605469 8.007812 105.339844 8.152344 C 105.078125 8.296875 104.863281 8.496094 104.699219 8.738281 C 104.53125 8.984375 104.40625 9.28125 104.335938 9.613281 C 104.261719 9.957031 104.222656 10.324219 104.222656 10.707031 C 104.222656 11.128906 104.257812 11.523438 104.328125 11.878906 C 104.394531 12.222656 104.511719 12.519531 104.667969 12.765625 C 104.820312 13.003906 105.03125 13.191406 105.285156 13.324219 C 105.550781 13.457031 105.886719 13.527344 106.289062 13.527344 C 106.695312 13.527344 107.027344 13.449219 107.292969 13.304688 C 107.558594 13.160156 107.773438 12.960938 107.9375 12.714844 C 108.105469 12.460938 108.222656 12.160156 108.296875 11.824219 C 108.367188 11.476562 108.40625 11.105469 108.40625 10.71875 C 108.40625 10.328125 108.371094 9.929688 108.296875 9.578125 C 108.226562 9.242188 108.113281 8.945312 107.949219 8.699219 C 107.796875 8.460938 107.582031 8.269531 107.324219 8.136719 C 107.0625 8.003906 106.726562 7.933594 106.328125 7.933594 Z M 106.09375 6.289062 C 105.992188 6.289062 105.914062 6.28125 105.851562 6.269531 C 105.761719 6.253906 105.695312 6.21875 105.644531 6.167969 C 105.585938 6.101562 105.5625 6.007812 105.585938 5.917969 C 105.601562 5.859375 105.632812 5.800781 105.6875 5.734375 L 106.777344 4.503906 C 106.828125 4.445312 106.878906 4.394531 106.9375 4.359375 C 106.988281 4.320312 107.050781 4.292969 107.121094 4.273438 C 107.183594 4.253906 107.253906 4.242188 107.335938 4.234375 C 107.410156 4.226562 107.496094 4.222656 107.597656 4.222656 C 107.730469 4.222656 107.835938 4.234375 107.917969 4.253906 C 108.011719 4.28125 108.085938 4.316406 108.140625 4.367188 C 108.210938 4.441406 108.238281 4.542969 108.210938 4.640625 C 108.195312 4.703125 108.160156 4.765625 108.105469 4.824219 L 106.792969 6.054688 C 106.746094 6.101562 106.703125 6.136719 106.660156 6.164062 C 106.613281 6.195312 106.558594 6.21875 106.5 6.238281 C 106.449219 6.257812 106.386719 6.269531 106.316406 6.273438 C 106.257812 6.28125 106.183594 6.285156 106.09375 6.285156 Z M 106.09375 6.289062 "/>
<path style=" stroke:none;fill-rule:nonzero;fill:rgb(23.529412%,22.352941%,22.745098%);fill-opacity:1;" d="M 115.066406 14.679688 C 114.980469 14.679688 114.90625 14.679688 114.84375 14.675781 C 114.769531 14.671875 114.707031 14.664062 114.652344 14.65625 C 114.597656 14.648438 114.554688 14.636719 114.515625 14.628906 C 114.464844 14.609375 114.421875 14.589844 114.378906 14.566406 C 114.335938 14.535156 114.300781 14.5 114.269531 14.457031 C 114.25 14.425781 114.234375 14.390625 114.214844 14.34375 L 111.785156 7.425781 C 111.75 7.324219 111.730469 7.238281 111.726562 7.164062 C 111.722656 7.054688 111.765625 6.957031 111.847656 6.894531 C 111.910156 6.847656 111.996094 6.816406 112.109375 6.804688 C 112.191406 6.796875 112.296875 6.792969 112.4375 6.792969 C 112.550781 6.792969 112.640625 6.792969 112.710938 6.800781 C 112.792969 6.808594 112.863281 6.824219 112.914062 6.847656 C 112.980469 6.878906 113.03125 6.917969 113.066406 6.972656 C 113.09375 7.007812 113.113281 7.050781 113.136719 7.105469 L 115.09375 12.867188 L 116.996094 7.125 C 117.011719 7.078125 117.03125 7.03125 117.054688 6.988281 C 117.089844 6.925781 117.148438 6.878906 117.226562 6.847656 C 117.28125 6.824219 117.351562 6.808594 117.4375 6.800781 C 117.589844 6.789062 117.894531 6.789062 118.039062 6.808594 C 118.152344 6.824219 118.234375 6.859375 118.289062 6.921875 C 118.332031 6.96875 118.378906 7.050781 118.363281 7.1875 C 118.359375 7.253906 118.335938 7.332031 118.300781 7.433594 L 115.875 14.347656 C 115.851562 14.417969 115.816406 14.472656 115.769531 14.519531 C 115.722656 14.566406 115.65625 14.605469 115.582031 14.628906 C 115.519531 14.648438 115.445312 14.660156 115.355469 14.667969 C 115.277344 14.671875 115.179688 14.675781 115.0625 14.675781 "/>
<path style=" stroke:none;fill-rule:nonzero;fill:rgb(23.529412%,22.352941%,22.745098%);fill-opacity:1;" d="M 124.957031 14.644531 L 121.390625 14.644531 C 121.261719 14.644531 121.136719 14.601562 121.027344 14.515625 C 120.902344 14.421875 120.835938 14.265625 120.835938 14.054688 L 120.835938 7.414062 C 120.835938 7.203125 120.902344 7.046875 121.027344 6.953125 C 121.140625 6.867188 121.261719 6.824219 121.390625 6.824219 L 124.917969 6.824219 C 124.980469 6.824219 125.042969 6.84375 125.097656 6.878906 C 125.15625 6.914062 125.199219 6.964844 125.230469 7.035156 C 125.25 7.082031 125.265625 7.140625 125.28125 7.207031 C 125.292969 7.265625 125.296875 7.339844 125.296875 7.433594 C 125.296875 7.515625 125.292969 7.585938 125.28125 7.648438 C 125.265625 7.71875 125.25 7.773438 125.226562 7.820312 C 125.199219 7.886719 125.15625 7.9375 125.097656 7.972656 C 125.042969 8.003906 124.984375 8.023438 124.917969 8.023438 L 122.195312 8.023438 L 122.195312 9.988281 L 124.503906 9.988281 C 124.574219 9.988281 124.636719 10.007812 124.691406 10.046875 C 124.742188 10.078125 124.78125 10.125 124.8125 10.179688 C 124.84375 10.230469 124.863281 10.292969 124.871094 10.371094 C 124.882812 10.429688 124.886719 10.503906 124.886719 10.585938 C 124.886719 10.667969 124.882812 10.734375 124.871094 10.792969 C 124.863281 10.867188 124.84375 10.925781 124.8125 10.976562 C 124.777344 11.039062 124.734375 11.085938 124.675781 11.113281 C 124.625 11.144531 124.566406 11.160156 124.503906 11.160156 L 122.195312 11.160156 L 122.195312 13.453125 L 124.957031 13.453125 C 125.023438 13.453125 125.082031 13.46875 125.136719 13.5 C 125.1875 13.53125 125.234375 13.578125 125.265625 13.636719 C 125.296875 13.691406 125.316406 13.753906 125.328125 13.832031 C 125.339844 13.890625 125.34375 13.964844 125.34375 14.050781 C 125.34375 14.132812 125.339844 14.199219 125.328125 14.257812 C 125.316406 14.332031 125.300781 14.398438 125.265625 14.453125 C 125.234375 14.511719 125.1875 14.5625 125.136719 14.59375 C 125.082031 14.628906 125.023438 14.644531 124.957031 14.644531 "/>
<path style=" stroke:none;fill-rule:nonzero;fill:rgb(23.529412%,22.352941%,22.745098%);fill-opacity:1;" d="M 128.90625 14.679688 C 128.804688 14.679688 128.71875 14.671875 128.644531 14.660156 C 128.5625 14.648438 128.5 14.632812 128.453125 14.617188 C 128.378906 14.589844 128.320312 14.546875 128.28125 14.492188 C 128.246094 14.4375 128.226562 14.375 128.226562 14.304688 L 128.226562 7.160156 C 128.226562 7.089844 128.25 7.023438 128.292969 6.96875 C 128.332031 6.914062 128.390625 6.871094 128.46875 6.847656 C 128.515625 6.832031 128.574219 6.816406 128.652344 6.804688 C 128.800781 6.78125 129.035156 6.785156 129.171875 6.804688 C 129.25 6.816406 129.3125 6.832031 129.359375 6.847656 C 129.433594 6.875 129.496094 6.917969 129.53125 6.972656 C 129.566406 7.027344 129.585938 7.089844 129.585938 7.160156 L 129.585938 14.304688 C 129.585938 14.371094 129.566406 14.4375 129.53125 14.488281 C 129.492188 14.542969 129.433594 14.589844 129.359375 14.617188 C 129.3125 14.632812 129.25 14.648438 129.171875 14.65625 C 129.105469 14.667969 129.015625 14.675781 128.90625 14.675781 "/>
<path style=" stroke:none;fill-rule:nonzero;fill:rgb(23.529412%,22.352941%,22.745098%);fill-opacity:1;" d="M 134.488281 14.75 C 134.226562 14.75 133.980469 14.730469 133.761719 14.683594 C 133.539062 14.640625 133.335938 14.585938 133.164062 14.519531 C 132.988281 14.457031 132.835938 14.386719 132.714844 14.316406 C 132.585938 14.242188 132.496094 14.179688 132.441406 14.117188 C 132.375 14.050781 132.328125 13.964844 132.296875 13.867188 C 132.269531 13.777344 132.253906 13.667969 132.253906 13.53125 C 132.253906 13.433594 132.261719 13.355469 132.269531 13.292969 C 132.28125 13.21875 132.296875 13.160156 132.316406 13.109375 C 132.347656 13.039062 132.394531 12.984375 132.449219 12.953125 C 132.582031 12.875 132.730469 12.886719 132.953125 13.035156 C 133.046875 13.09375 133.164062 13.164062 133.308594 13.238281 C 133.453125 13.308594 133.628906 13.378906 133.835938 13.441406 C 134.035156 13.503906 134.269531 13.53125 134.53125 13.53125 C 134.726562 13.53125 134.90625 13.503906 135.0625 13.457031 C 135.21875 13.40625 135.351562 13.335938 135.460938 13.246094 C 135.570312 13.15625 135.648438 13.050781 135.707031 12.921875 C 135.765625 12.792969 135.792969 12.644531 135.792969 12.476562 C 135.792969 12.308594 135.757812 12.15625 135.679688 12.035156 C 135.597656 11.90625 135.484375 11.789062 135.347656 11.691406 C 135.203125 11.585938 135.03125 11.488281 134.839844 11.398438 L 134.222656 11.109375 C 134.007812 11.007812 133.792969 10.898438 133.59375 10.777344 C 133.382812 10.648438 133.1875 10.5 133.023438 10.328125 C 132.851562 10.152344 132.710938 9.941406 132.601562 9.707031 C 132.492188 9.464844 132.441406 9.175781 132.441406 8.851562 C 132.441406 8.523438 132.503906 8.207031 132.625 7.941406 C 132.75 7.671875 132.925781 7.445312 133.148438 7.261719 C 133.371094 7.082031 133.628906 6.945312 133.929688 6.851562 C 134.375 6.710938 134.890625 6.671875 135.410156 6.757812 C 135.585938 6.789062 135.75 6.832031 135.90625 6.882812 C 136.0625 6.933594 136.207031 6.992188 136.328125 7.054688 C 136.464844 7.125 136.550781 7.179688 136.601562 7.230469 C 136.652344 7.285156 136.683594 7.324219 136.707031 7.359375 C 136.726562 7.394531 136.742188 7.4375 136.753906 7.488281 C 136.761719 7.527344 136.769531 7.578125 136.773438 7.632812 C 136.777344 7.683594 136.78125 7.746094 136.78125 7.824219 C 136.78125 7.90625 136.777344 7.972656 136.773438 8.03125 C 136.765625 8.097656 136.753906 8.15625 136.738281 8.199219 C 136.714844 8.269531 136.679688 8.328125 136.628906 8.371094 C 136.511719 8.464844 136.378906 8.46875 136.148438 8.332031 C 136.058594 8.277344 135.953125 8.21875 135.828125 8.15625 C 135.707031 8.09375 135.5625 8.035156 135.394531 7.984375 C 135.089844 7.886719 134.652344 7.878906 134.375 7.980469 C 134.242188 8.027344 134.136719 8.089844 134.058594 8.164062 C 133.976562 8.234375 133.921875 8.320312 133.878906 8.425781 C 133.839844 8.527344 133.816406 8.640625 133.816406 8.757812 C 133.816406 8.929688 133.855469 9.070312 133.933594 9.191406 C 134.015625 9.320312 134.128906 9.4375 134.269531 9.539062 C 134.417969 9.648438 134.589844 9.746094 134.78125 9.839844 C 134.984375 9.933594 135.191406 10.03125 135.402344 10.128906 C 135.617188 10.230469 135.828125 10.339844 136.035156 10.457031 C 136.253906 10.582031 136.449219 10.730469 136.617188 10.902344 C 136.792969 11.078125 136.933594 11.285156 137.042969 11.519531 C 137.148438 11.761719 137.203125 12.046875 137.203125 12.367188 C 137.203125 12.738281 137.136719 13.082031 136.996094 13.378906 C 136.855469 13.671875 136.660156 13.929688 136.414062 14.132812 C 136.164062 14.339844 135.875 14.496094 135.546875 14.597656 C 135.21875 14.699219 134.867188 14.75 134.492188 14.75 "/>
<path style=" stroke:none;fill-rule:nonzero;fill:rgb(98.823529%,74.117649%,12.54902%);fill-opacity:1;" d="M 25.523438 14.65625 L 12.84375 7.332031 L 25.523438 0 Z M 25.523438 14.65625 "/>
<path style=" stroke:none;fill-rule:nonzero;fill:rgb(94.117647%,49.411765%,14.901961%);fill-opacity:1;" d="M 12.835938 21.980469 L 25.523438 14.65625 L 12.835938 7.324219 Z M 12.835938 21.980469 "/>
<path style=" stroke:none;fill-rule:nonzero;fill:rgb(94.117647%,49.411765%,14.901961%);fill-opacity:1;" d="M 25.523438 0 L 25.523438 14.652344 L 38.183594 21.984375 L 38.1875 7.324219 Z M 25.523438 0 "/>
<path style=" stroke:none;fill-rule:nonzero;fill:rgb(94.117647%,49.411765%,14.901961%);fill-opacity:1;" d="M 12.847656 21.980469 L 0.160156 29.300781 L 0.1875 14.644531 Z M 12.847656 21.980469 "/>
<path style=" stroke:none;fill-rule:nonzero;fill:rgb(94.117647%,49.411765%,14.901961%);fill-opacity:1;" d="M 25.523438 29.277344 L 12.796875 36.660156 L 12.835938 21.976562 Z M 25.523438 29.277344 "/>
<path style=" stroke:none;fill-rule:nonzero;fill:rgb(94.117647%,49.411765%,14.901961%);fill-opacity:1;" d="M 38.179688 36.628906 L 38.183594 21.96875 L 50.824219 29.273438 Z M 38.179688 36.628906 "/>
<path style=" stroke:none;fill-rule:nonzero;fill:rgb(94.117647%,49.411765%,14.901961%);fill-opacity:1;" d="M 63.515625 36.539062 L 50.816406 29.261719 L 50.824219 44 Z M 63.515625 36.539062 "/>
<path style=" stroke:none;fill-rule:nonzero;fill:rgb(92.156863%,40.000001%,24.313726%);fill-opacity:1;" d="M 12.847656 21.980469 L 0.183594 14.652344 L 12.847656 7.324219 Z M 12.847656 21.980469 "/>
<path style=" stroke:none;fill-rule:nonzero;fill:rgb(92.156863%,40.000001%,24.313726%);fill-opacity:1;" d="M 38.179688 7.324219 L 38.179688 21.984375 L 50.816406 29.28125 L 50.820312 14.609375 Z M 38.179688 7.324219 "/>
<path style=" stroke:none;fill-rule:nonzero;fill:rgb(92.156863%,40.000001%,24.313726%);fill-opacity:1;" d="M 12.839844 21.976562 L 12.796875 36.652344 L 0.160156 29.300781 Z M 12.839844 21.976562 "/>
<path style=" stroke:none;fill-rule:nonzero;fill:rgb(92.156863%,40.000001%,24.313726%);fill-opacity:1;" d="M 25.53125 29.277344 L 38.195312 36.625 L 38.183594 21.964844 Z M 25.53125 29.277344 "/>
<path style=" stroke:none;fill-rule:nonzero;fill:rgb(92.156863%,40.000001%,24.313726%);fill-opacity:1;" d="M 38.1875 36.621094 L 50.824219 43.996094 L 50.816406 29.261719 Z M 38.1875 36.621094 "/>
<path style=" stroke:none;fill-rule:nonzero;fill:rgb(92.156863%,40.000001%,24.313726%);fill-opacity:1;" d="M 25.519531 29.277344 L 25.519531 44 L 12.800781 36.65625 Z M 25.519531 29.277344 "/>
</g>
</svg>
