<svg width="127" height="32" viewBox="0 0 127 32" fill="none" xmlns="http://www.w3.org/2000/svg">
<path fill-rule="evenodd" clip-rule="evenodd" d="M16.0665 31.4354C15.5861 31.4354 15.0906 31.241 14.7152 30.882L1.12626 17.3312C0.765946 16.9723 0.570801 16.4786 0.570801 16L6.42672 16.329L6.80212 22.6857L7.16243 16.3739L15.2106 16.8525L15.6611 24.4057L9.83519 24.7497L15.6911 25.0937L16.0665 31.4354Z" fill="#00C0F3"/>
<path fill-rule="evenodd" clip-rule="evenodd" d="M24.4901 23.8373L24.43 23.8971L16.4868 24.3608L16.9373 16.8525L24.9255 16.3889L24.4901 23.8373ZM31.5622 16C31.5622 16.4786 31.3821 16.9723 31.0066 17.3312L26.1117 22.222L25.7663 16.329L31.5622 16ZM22.8084 25.4975L17.4178 30.882C17.0424 31.241 16.5619 31.4354 16.0664 31.4354L16.4419 25.1386L22.8084 25.4975Z" fill="#16AEBD"/>
<path fill-rule="evenodd" clip-rule="evenodd" d="M16.0664 0.564575C16.5619 0.564575 17.0424 0.75905 17.4178 1.11815L31.0066 14.6689C31.3821 15.0278 31.5622 15.5214 31.5622 16.0001L25.7213 15.6711L25.3459 9.31441L24.9706 15.6262L16.9373 15.1475L16.4868 7.59435L22.3128 7.25038L16.4419 6.9064L16.0664 0.564575Z" fill="#6DC8BF"/>
<path fill-rule="evenodd" clip-rule="evenodd" d="M9.32465 6.50245L14.7152 1.11815C15.0906 0.75905 15.5861 0.564575 16.0665 0.564575L15.7061 6.8615L9.32465 6.50245ZM7.65798 8.16278L7.70304 8.10292L15.646 7.63925L15.2106 15.1475L7.20749 15.6112L7.65798 8.16278ZM1.12626 14.6689L6.03633 9.77807L6.38165 15.6711L0.570801 16.0001C0.570801 15.5214 0.765946 15.0278 1.12626 14.6689Z" fill="#B1DED3"/>
<path d="M51.5089 25.2314H46.703C44.8466 25.2314 43.4067 25.093 42.4003 24.7994C41.4115 24.5229 40.5613 24.0216 39.8674 23.2958C38.3406 21.7059 37.5771 19.4765 37.5771 16.6077C37.5771 13.4451 38.5487 11.0257 40.5093 9.38392C41.1338 8.86538 41.7932 8.50253 42.4871 8.29506C43.1811 8.08779 44.1006 7.98413 45.2629 7.98413H51.5089V11.0603H46.703C45.4539 11.0603 44.5343 11.1467 43.9617 11.3195C43.3719 11.4923 42.8861 11.8206 42.5044 12.3218C42.2442 12.6674 42.0707 13.0131 41.984 13.3415C41.8972 13.6698 41.8278 14.2573 41.7584 15.1215H51.5089V18.1804H41.7584C41.8799 19.6493 42.3136 20.6861 43.0769 21.2738C43.8231 21.8613 45.0895 22.1552 46.8591 22.1552H51.5089V25.2314ZM65.9087 21.2738C65.9087 22.0514 65.7179 22.7774 65.3189 23.4686C64.9372 24.1599 64.4514 24.6438 63.8616 24.903C63.3585 25.1277 62.4042 25.2314 61.0163 25.2314H53.8336V22.5354H60.0274C60.8253 22.5354 61.3632 22.5182 61.6409 22.4835C62.2134 22.4144 62.5083 22.0688 62.5083 21.4466C62.5083 20.8937 62.2827 20.5307 61.8317 20.3579C61.5888 20.2715 61.103 20.2369 60.3916 20.2369H58.2925C56.8351 20.2369 55.7594 19.9777 55.0828 19.4593C54.1286 18.716 53.6601 17.6619 53.6601 16.2965C53.6601 14.9832 54.1459 13.9635 55.1174 13.2377C55.638 12.8403 56.5748 12.6329 57.9281 12.6329H65.3362V15.3288H59.1773C58.5006 15.3288 58.0496 15.3634 57.8414 15.4325C57.4423 15.5881 57.2515 15.9337 57.2515 16.4349C57.2515 17.0224 57.4944 17.3854 57.9802 17.5409C58.2404 17.6272 58.7435 17.6792 59.5069 17.6792H61.5367C62.9246 17.6792 64.0004 17.9729 64.7637 18.5951C65.5272 19.2173 65.9087 20.116 65.9087 21.2738ZM76.1102 25.2314H73.5772C72.0504 25.2314 70.9748 24.8858 70.3502 24.1772C69.7083 23.4686 69.396 22.2416 69.396 20.4961V15.3288H67.1926V12.6329H69.396V7.98413H72.8833V12.6329H76.1102V15.3288H72.8833V19.8913C72.8833 20.9801 73.0047 21.6885 73.2303 22.0341C73.4732 22.3626 73.9589 22.5354 74.7222 22.5354H76.1102V25.2314ZM84.2819 17.5755V20.2542H82.6336C81.7661 20.2542 81.3324 20.6518 81.3324 21.4294C81.3324 22.1724 81.957 22.5354 83.2061 22.5354H84.2819V25.2314H83.3796C82.2172 25.2314 81.5059 25.2313 81.2284 25.2141C80.3782 25.1277 79.7189 24.903 79.2505 24.5573C78.2789 23.8488 77.7931 22.8291 77.7931 21.4811C77.7931 20.6171 78.0014 19.8566 78.435 19.1827C78.8514 18.526 79.4066 18.0766 80.1007 17.852C80.6905 17.6619 81.6447 17.5755 82.9633 17.5755H84.2819ZM84.2819 12.6329V15.3288H78.7127V12.6329H84.2819ZM84.2819 8.70994V11.2331H82.5469L84.2819 8.70994ZM104.511 25.2314H99.7575C98.491 25.2314 97.4848 25.1103 96.7388 24.8511C95.9753 24.5919 95.3161 24.1426 94.7436 23.5032C93.6505 22.2933 93.1127 20.7208 93.1127 18.8026C93.1127 16.6249 93.7547 14.9832 95.0559 13.8771C96.0275 13.0476 97.5889 12.6329 99.7575 12.6329H104.511V15.3288H100.365C99.0635 15.3288 98.1094 15.6054 97.5367 16.1584C96.9642 16.7113 96.6694 17.6272 96.6694 18.8888C96.6694 20.1678 96.9817 21.101 97.6236 21.6713C98.2654 22.2416 99.3064 22.5354 100.746 22.5354H104.511V25.2314ZM110.705 11.3367H107.218V7.98413H110.705V11.3367ZM110.705 25.2314H107.218V12.6329H110.705V25.2314ZM84.2819 11.2331V8.70994L84.785 7.98413H87.9773L84.5768 11.2331H84.2819ZM84.2819 25.2314V22.5354H87.2312V20.2542H84.2819V17.5755H87.2312V17.3681C87.2312 16.5904 87.0405 16.072 86.6587 15.7781C86.277 15.4843 85.5831 15.3288 84.5768 15.3288H84.2819V12.6329H84.5768C85.93 12.6329 86.8322 12.6847 87.2834 12.7711C88.2201 12.9439 88.9836 13.3587 89.5734 14.0327C90.3368 14.914 90.7185 16.2793 90.7185 18.1285V25.2314H84.2819ZM119.97 15.1215C119.952 15.1215 119.935 15.1215 119.9 15.1215C117.853 15.1215 116.829 16.3831 116.829 18.9407C116.829 21.464 117.888 22.7255 119.97 22.7427V25.4042C119.935 25.4042 119.9 25.4042 119.848 25.4042C117.801 25.4042 116.205 24.8338 115.025 23.676C113.863 22.5182 113.273 20.9282 113.273 18.9062C113.273 16.936 113.88 15.3634 115.077 14.2055C116.292 13.0476 117.905 12.4601 119.952 12.4601H119.97V15.1215ZM123.11 18.9407C123.11 16.4176 122.052 15.156 119.97 15.1215V12.4601C122.069 12.4601 123.717 13.0476 124.897 14.2055C126.077 15.3634 126.667 16.9879 126.667 19.0616C126.667 21.0318 126.059 22.5871 124.845 23.7105C123.648 24.8338 122.034 25.3869 119.97 25.4042V22.7427C119.987 22.7427 119.987 22.7427 120.004 22.7427C122.069 22.7427 123.11 21.4811 123.11 18.9407Z" fill="black"/>
</svg>
