<svg xmlns="http://www.w3.org/2000/svg" viewBox="0 0 128 28" preserveAspectRatio="xMidYMid meet"><path d="M11.898 12.75h2.579v.387l-.227.203c-.27.168-.563.293-.867.375-.438.133-.89.195-1.344.195a4.363 4.363 0 0 1-3.105-1.273A4.35 4.35 0 0 1 7.656 9.53a4.238 4.238 0 0 1 1.29-3.117 4.432 4.432 0 0 1 3.226-1.262c.484 0 .965.075 1.43.22.406.116.8.28 1.171.487.317.184.614.395.887.633.195.156.38.32.555.5.086.094.156.164.207.219l3.473-3.606-.278-.37a6.701 6.701 0 0 0-.98-.903 14.705 14.705 0 0 0-1.543-1.05 8.883 8.883 0 0 0-2.227-.903A10.243 10.243 0 0 0 12.051 0a10.061 10.061 0 0 0-7.239 2.809 9.015 9.015 0 0 0-2.937 6.718 9.01 9.01 0 0 0 2.938 6.723 10.058 10.058 0 0 0 7.234 2.809 11.248 11.248 0 0 0 2.887-.387c.796-.2 1.566-.488 2.296-.863.59-.317 1.149-.684 1.676-1.094.356-.27.696-.559 1.016-.871.16-.164.273-.297.36-.395V8.371h-8.376v4.379Zm22.465-1.809a2.92 2.92 0 0 1-.816 2.102 2.512 2.512 0 0 1-3.785 0 2.92 2.92 0 0 1-.817-2.102V.508h-5.797v10.445a7.768 7.768 0 0 0 2.387 5.809 8.423 8.423 0 0 0 6.121 2.308 8.436 8.436 0 0 0 6.11-2.297 7.77 7.77 0 0 0 2.386-5.812V.508h-5.797v10.445ZM47.895.508l-6.56 18.043h6.173l1.035-3.473h5.156l1.016 3.473h6.183L54.328.508Zm1.917 10.18 1.301-4.5 1.278 4.5Zm26.852 1.37c.27-.144.512-.335.719-.562.297-.309.574-.64.824-.992.32-.465.559-.98.711-1.524.2-.66.3-1.343.297-2.03a6.153 6.153 0 0 0-1.895-4.598A6.759 6.759 0 0 0 72.383.508h-8.871V18.55h5.777v-5.16h1.809l2.699 5.16h6.05l-3.472-6.317.281-.175Zm-3.621-4.16A1.51 1.51 0 0 1 72 8.242h-2.703V5.664H72c.379-.023.754.098 1.047.34.254.25.39.594.371.95.02.355-.117.698-.379.937m9.164 10.656h5.777V.507h-5.777v18.044ZM98.43.507h-7.207v18.044h7.207a9.754 9.754 0 0 0 6.988-2.64 8.475 8.475 0 0 0 2.789-6.38 8.463 8.463 0 0 0-2.789-6.379A9.757 9.757 0 0 0 98.43.508m2.847 11.777a3.888 3.888 0 0 1-2.847 1.106h-1.422V5.668h1.422a3.92 3.92 0 0 1 2.847 1.105 3.717 3.717 0 0 1 1.133 2.758 3.708 3.708 0 0 1-1.133 2.754M121.317.508h-6.438L108.32 18.55h6.172l1.035-3.473h5.157l1.015 3.473h6.184L121.324.508Zm-4.516 10.18 1.297-4.5 1.277 4.5Zm0 0" style="stroke: none; fill-rule: nonzero; fill: rgb(0, 0, 0); fill-opacity: 1;"></path><path d="m20.371 20.41-.293.211a13.794 13.794 0 0 1-16.43 0l-.289-.21L0 23.772l.371.29a18.541 18.541 0 0 0 23.012 0l.367-.29-3.36-3.363Zm0 0" style="stroke: none; fill-rule: nonzero; fill: rgb(230, 0, 96); fill-opacity: 1;"></path></svg>
