<?xml version="1.0" encoding="UTF-8"?>
<svg id="Camada_1" data-name="Camada 1" xmlns="http://www.w3.org/2000/svg" viewBox="0 0 207.33 50">
  <defs>
    <style>
      .cls-1 {
        fill: #fff;
      }
    </style>
  </defs>
  <path class="cls-1" d="M192.91,6.89c-.02.05-.05.43-.05.85,0,.99-.08.92,1.15,1.03.85.07,1.49.11,1.69.09.15,0,.19-.23.19-.95,0-.64,0-.71-.1-.83-.08-.1-.14-.13-.3-.13-.11,0-.48-.03-.82-.07s-.85-.07-1.16-.07c-.49,0-.55,0-.6.09h0ZM169.77,7.24c-.25.02-.51.05-.58.07-.07.01-.35.05-.63.07-.72.06-.7.05-.7.61,0,.26.02.47.05.49.05.03.34,0,1.51-.15.31-.04.66-.07.79-.07.16,0,.27-.03.36-.1.12-.09.13-.13.13-.46,0-.54,0-.54-.92-.46h0Z"/>
  <g>
    <path class="cls-1" d="M179.69.86c.05.07-.16.1-1.12.13-1.4.04-4.34.24-5.76.39-.38.04-.76.07-.85.07s-.43.03-.76.07c-.32.04-.89.11-1.27.15-.38.04-.94.11-1.25.15-1.78.23-1.72.22-3.14.43-.77.12-1.83.29-2.7.44-.21.03-.49.08-.62.09-.12.01-.25.05-.27.09-.08.1-.13,2.83-.13,7.17,0,4.85.05,6.15.29,8.13.04.32.07.65.07.73,0,.08.03.36.07.61s.1.63.13.83c.03.2.08.51.1.68.02.18.07.45.1.61s.09.47.13.68c.13.67.33,1.66.44,2.1.04.16.1.42.14.57.16.65.29,1.14.43,1.6.04.12.1.35.15.51s.11.35.14.42c.02.07.06.19.09.27.02.08.12.37.21.64s.2.54.22.61.09.24.15.39.12.33.15.4c.02.07.06.17.09.22.03.05.13.29.23.53.1.24.23.56.3.71.17.37,1.17,2.37,1.29,2.59.05.09.15.27.22.39.06.12.16.28.21.37.05.08.11.19.14.24s.09.16.14.23c.04.07.15.23.22.37.24.41.68,1.06.89,1.34.12.15.21.29.21.31,0,.03.81,1.11,1.14,1.51.13.16.32.39.42.51,1.05,1.28,2.8,3.08,4.13,4.22.59.51.61.52.98.81.19.15.35.28.37.29.1.12,2.13,1.57,2.48,1.78.04.03.21.14.38.24.35.23.45.3.59.37.05.03.17.09.24.15.08.05.19.12.24.15s.21.12.34.2c.14.08.31.18.39.22.08.04.22.12.32.18.21.12,1.72.88,2.27,1.14.21.1.43.2.47.22.11.06.31.06.42,0,.04-.02.22-.11.4-.19.53-.24,1.91-.93,2.25-1.11.18-.1.42-.23.54-.3.12-.06.29-.16.37-.21.08-.05.19-.11.24-.14s.18-.1.27-.16.21-.13.24-.15.14-.08.22-.13c.08-.05.18-.11.21-.13.03-.02.3-.19.59-.39.28-.19.63-.43.76-.51.24-.17,1.76-1.31,2.17-1.64,1.35-1.08,3.39-3.07,4.57-4.46.05-.06.13-.15.18-.2.04-.04.15-.18.24-.3.09-.12.19-.24.22-.27.03-.03.2-.23.37-.46.18-.23.34-.45.38-.49.44-.56,1.72-2.44,1.97-2.91.03-.05.09-.17.14-.24.05-.08.16-.26.23-.39.07-.14.17-.3.2-.37.25-.45.45-.84.72-1.37.41-.82.64-1.32.98-2.13.04-.09.1-.24.14-.33.03-.08.1-.25.15-.38.04-.12.11-.27.13-.34.03-.07.07-.18.09-.24.02-.07.09-.24.15-.39s.12-.34.15-.42c.04-.14.08-.26.22-.66.03-.09.1-.3.15-.46.05-.16.11-.35.14-.42.02-.07.06-.2.09-.29.02-.09.08-.33.14-.51.06-.19.12-.43.15-.54.02-.11.07-.29.1-.42.16-.62.23-.93.41-1.78.04-.21.11-.53.15-.69s.07-.35.07-.42c0-.06.03-.27.07-.45.23-1.1.66-4.59.67-5.47,0-.63.06-1.03.13-1.02.04,0,.06-1.11.06-5.51,0-3.24-.02-5.51-.04-5.5-.07.04-.1-.1-.11-.5,0-.21-.02-.5-.03-.64q-.03-.27-.23-.3c-.11-.01-.34-.06-.51-.09s-.44-.07-.59-.09-.4-.06-.56-.09c-.32-.06-.68-.12-2.52-.4-.2-.03-.52-.08-.71-.1-.19-.02-.49-.06-.68-.09-.19-.03-.61-.08-.93-.12s-.78-.1-1.03-.13c-.24-.03-.63-.07-.85-.09s-.64-.06-.93-.09c-.28-.03-.81-.09-1.17-.13s-.78-.07-.93-.07-.54-.03-.88-.07-.77-.07-.97-.07-.71-.03-1.15-.07c-.43-.04-1.28-.08-1.9-.1-1.1-.03-1.28-.05-1.23-.13.01-.02-1.67-.04-4.06-.04s-4.07.02-4.06.04h0ZM186.53,2.28c3.54.09,7.99.39,10.33.69.23.03.6.07.83.09s.6.06.83.09c.23.03.67.09.98.13,1.22.16,2.99.42,3.96.59.23.03.49.08.59.09.1.01.21.06.24.1.16.2.18,9.73.02,11.33-.04.4-.07.85-.07,1,0,.26-.1,1.28-.21,2.1-.02.23-.07.58-.09.78s-.06.53-.1.73c-.16,1.04-.21,1.32-.27,1.64-.04.19-.07.39-.07.45,0,.06-.03.23-.07.39-.04.15-.11.45-.15.67-.21.99-.43,1.91-.74,2.96-.18.59-.57,1.79-.74,2.27-.04.11-.1.27-.13.37-.13.35-.38.96-.44,1.09-.04.08-.07.16-.07.19,0,.07-.43,1-.92,2-.34.68-.67,1.31-.86,1.61-.06.09-.12.21-.14.24-.02.04-.08.14-.13.22-.05.08-.12.19-.15.24-.13.23-.45.74-1.17,1.81-.34.5-1.59,2.12-1.93,2.49-.02.03-.12.14-.21.25-.5.6-1.55,1.69-2.55,2.64-.37.35-1.55,1.37-1.95,1.68-.12.09-.23.18-.24.2-.02.03-.85.65-1.03.79-.46.33-.87.61-.94.65-.04.02-.23.16-.43.29-.2.13-.4.26-.44.29-.04.02-.38.22-.73.44-.36.21-.68.41-.72.43s-.14.08-.22.13c-.23.15-.66.37-2.29,1.18-.15.08-.31.14-.34.14-.03,0-.21-.07-.38-.15-.62-.3-1.45-.71-1.71-.86-.15-.08-.36-.2-.48-.26-.28-.16-.3-.17-.9-.53-.29-.18-.57-.34-.61-.37-.04-.03-.21-.14-.38-.24s-.33-.21-.38-.24c-.21-.13-1.24-.85-1.63-1.15-.49-.37-1.32-1.04-1.82-1.47-1.31-1.12-2.57-2.38-3.64-3.62-.41-.48-.59-.69-1.16-1.42-.32-.4-1.27-1.71-1.43-1.99-.03-.04-.14-.21-.24-.38-.22-.33-.29-.44-.37-.59-.03-.05-.09-.17-.15-.24-.05-.08-.12-.19-.15-.24s-.12-.21-.2-.34c-.08-.14-.18-.31-.22-.39-.04-.08-.15-.28-.24-.44-.37-.67-.93-1.84-1.29-2.71-.14-.34-.27-.65-.3-.7-.03-.05-.07-.15-.09-.22-.04-.14-.12-.36-.29-.79-.06-.15-.12-.34-.15-.42-.04-.14-.08-.26-.22-.66-.03-.09-.1-.3-.15-.46-.05-.16-.12-.37-.15-.45-.04-.09-.07-.2-.07-.24,0-.04-.03-.17-.07-.28-.04-.11-.11-.34-.15-.51s-.11-.43-.15-.56c-.17-.62-.34-1.38-.58-2.63-.15-.78-.19-.95-.22-1.26-.05-.4-.13-.92-.22-1.47-.03-.23-.07-.48-.07-.56s-.03-.42-.07-.75c-.09-.74-.2-2.02-.27-3.2-.09-1.33-.11-7.75-.03-9.46.04-.89.08-1.43.12-1.46.03-.03.21-.07.39-.09.18-.02.45-.06.6-.09s.48-.08.73-.12.66-.11.91-.15c.24-.04.51-.07.59-.07s.32-.03.53-.07c.48-.09,1.09-.17,1.61-.22.21-.02.57-.06.78-.09s.69-.08,1.05-.12.88-.1,1.15-.13c.27-.03.73-.07,1.03-.1.3-.02.78-.06,1.07-.09.92-.09,1.88-.16,2.69-.2.43-.02,1.25-.06,1.81-.09,2.47-.14,5.51-.18,8.35-.1h0Z"/>
    <g>
      <path class="cls-1" d="M1.58,40.59V7.91h7.95v25.79h15.12v6.89H1.58Z"/>
      <path class="cls-1" d="M34.13,40.59v-12.67L20.44,7.91h9.13l8.68,12.75,8.68-12.75h8.84l-13.69,20.05v12.63h-7.95Z"/>
      <path class="cls-1" d="M73.41,41.24c-6.33,0-10.87-1.36-13.61-4.08-2.74-2.72-4.12-7.02-4.12-12.92s1.37-10.2,4.12-12.92c2.74-2.72,7.28-4.07,13.61-4.07s10.82,1.36,13.57,4.07c2.74,2.72,4.12,7.02,4.12,12.92s-1.37,10.2-4.12,12.92c-2.74,2.72-7.27,4.08-13.57,4.08ZM73.41,34.27c3.67,0,6.19-.75,7.56-2.26,1.37-1.51,2.06-4.09,2.06-7.76s-.69-6.25-2.06-7.76c-1.37-1.51-3.89-2.26-7.56-2.26s-6.23.75-7.6,2.26c-1.37,1.51-2.06,4.09-2.06,7.76s.69,6.25,2.06,7.76c1.37,1.51,3.9,2.26,7.6,2.26Z"/>
      <path class="cls-1" d="M96.88,40.59V7.91h9.86l15.36,22.29V7.91h7.95v32.68h-10.11l-15.12-21.72v21.72h-7.95Z"/>
    </g>
    <rect class="cls-1" x="145.55" y="6.26" width=".81" height="37.48"/>
    <g>
      <path class="cls-1" d="M175.25,18.16c-.28,0-.37.09-.37.39,0,.13.02.25.04.26.02.01.15,0,.29-.03.34-.08.51-.37.32-.55h0s-.16-.08-.29-.08Z"/>
      <path class="cls-1" d="M174.79,17.73c-.06.11-.13.1,1.1.04.93-.05,1.12-.09,1.95-.35.24-.07.56-.18.71-.21.15-.04.35-.11.44-.15.09-.03.23-.07.3-.09.18-.04.39-.23.52-.47.06-.12.16-.28.2-.36.05-.08.11-.18.13-.22s.16-.29.32-.55c.16-.26.29-.53.3-.58h0c0-.1,0-.1-.57-.11-.42,0-.64.01-.78.07-.47.18-.59.22-.74.29-.09.04-.23.1-.32.13-.25.1-.46.2-1.06.49-.59.29-.64.33-1.24,1.08-.48.6-.54.66-.9.8-.17.07-.32.16-.35.21Z"/>
      <path class="cls-1" d="M169.65,8.96c.3,0,.61-.18.74-.41.09-.16.11-.27.11-.64s-.01-.47-.11-.61c-.06-.09-.17-.19-.23-.22-.26-.12-.36-.12-1.85.05-.96.11-1.43.17-1.52.2-.08.02-.09.14-.09,1.41,0,1.07.01,1.39.06,1.41.03,0,.14,0,.23-.01l.17-.04.02-.41.02-.41.29-.06c.16-.03.55-.08.85-.11.31-.02.68-.07.82-.1.14-.02.35-.05.46-.05ZM167.25,8.74s-.05-.22-.05-.49c0-.55-.01-.55.7-.61.28-.02.56-.06.63-.07.07-.02.33-.05.58-.07h0c.92-.07.92-.08.92.46,0,.33,0,.37-.13.46-.09.07-.2.1-.36.1-.12,0-.48.03-.78.07-1.17.15-1.46.18-1.51.15Z"/>
      <path class="cls-1" d="M176.05,15.64s.12-.07.16-.09.18-.1.32-.18c.13-.08.38-.22.56-.32.18-.09.38-.21.46-.26.08-.05.26-.15.39-.21.27-.14.67-.36,1.17-.63.19-.1.65-.35,1.04-.54l.7-.36.81-.08c.63-.06,1.42-.08,3.56-.09h2.75s.18.11.18.11c.1.06.18.13.16.14-.01.01-.37.04-.79.06-.42.02-1.01.06-1.3.1-.29.03-.88.08-1.29.13-.69.06-1.66.19-1.94.24-.08.02-.1.04-.06.08.03.03.26.04.65.02.33,0,1.26-.05,2.07-.09,1.32-.05,1.49-.05,1.66.01.1.04.38.16.62.26.42.18,1.13.5,1.39.63.18.09.71.17,1.54.21q.73.04,1.17.25c.24.12.59.3.77.41.19.11.37.21.41.23.04.02.14.08.22.13.08.05.19.12.24.14.05.02.18.1.28.17.1.07.19.13.2.13s.16.09.33.2c.17.12.38.25.46.29.16.09.4.12.4.04,0-.05-1.54-1.59-1.75-1.75-.12-.09-.37-.24-.78-.46-.12-.07-.3-.17-.39-.22-.09-.06-.28-.16-.41-.23-.13-.07-.44-.23-.68-.37-.45-.24-2.02-1.03-2.41-1.21-.39-.18-.74-.24-1.51-.27-.41-.02-1.17-.05-1.68-.08h0c-1.05-.05-2.26-.05-3.41,0-2.14.1-2.68.14-2.85.21-.13.05-.24.18-.43.47-.3.45-.4.56-1.01,1.07-.56.48-1.11.89-1.64,1.24-.24.16-.44.32-.46.36-.04.1.02.14.12.07Z"/>
      <path class="cls-1" d="M171.71,24.44c-.21,0-.72.37-.72.51,0,.03.12.19.27.37.15.18.27.33.27.35,0,.02.03.04.06.04.07,0,.23-.73.23-1.06,0-.18-.01-.2-.11-.2Z"/>
      <path class="cls-1" d="M188.71,9.25c1.77.05,1.76.05,1.67-.25l-.05-.16h-.51c-1.26-.04-2.5-.12-2.54-.18-.07-.11-.04-.6.03-.67.05-.04.31-.05,1.18,0,.61.03,1.19.07,1.29.08.21.03.3-.05.28-.28v-.16s-.43-.04-.43-.04c-.23-.02-.85-.05-1.39-.07l-.97-.03v-.68h.58c.32.01,1,.04,1.5.08.87.05.92.05.99-.03.1-.14.08-.31-.04-.36-.06-.02-.55-.07-1.09-.1h0c-1.35-.07-2.46-.07-2.46,0-.01.68,0,2.68.02,2.72.05.08.3.1,1.92.14Z"/>
      <path class="cls-1" d="M176.86,9.17c.19.1.25.1,1.44.07,2.17-.05,2.15-.03,2.13-1.81v-1.07s-.23-.01-.23-.01c-.12,0-.24,0-.26.02-.02.02-.03.53-.03,1.12,0,.87-.01,1.1-.07,1.15-.09.08-.47.12-1.74.16-.93.03-.96.03-1.01-.07-.03-.06-.05-.47-.05-1.15,0-1.17,0-1.18-.34-1.11l-.17.03v1.04c-.03,1.26.01,1.45.34,1.62Z"/>
      <path class="cls-1" d="M192.18,9.37c.53.09,1.59.18,2.28.18.75.01.82,0,.92-.08.22-.2.24-.31.24-1.23,0-.81,0-.88-.11-1.06-.18-.32-.36-.38-1.31-.48h0c-1.07-.1-1.91-.14-2.13-.08-.09.02-.22.1-.28.17-.11.12-.11.16-.11,1.17v1.04l.17.17c.1.1.24.18.33.19ZM192.12,8c0-.42.02-.79.05-.85.05-.08.11-.09.6-.09.3,0,.82.03,1.15.07.34.04.7.07.81.07.16,0,.22.02.3.13.09.12.1.19.1.83,0,.72-.04.94-.19.95-.2.02-.84-.01-1.68-.09-1.22-.1-1.14-.04-1.14-1.02Z"/>
      <path class="cls-1" d="M183.77,9.11c.92,0,1.68,0,1.72-.02.04-.02.06-.25.06-.78,0-.7,0-.75-.1-.8-.06-.03-.43-.04-1.01-.04h-.92s-.01.19-.01.19c0,.1,0,.19.05.23.04.03.33.06.74.07h.68v.7h-1.34c-1.21.02-1.35.02-1.41-.05-.09-.11-.1-1.69-.01-1.77.04-.04.49-.05,1.48-.05.79,0,1.47,0,1.52-.02.11-.03.12-.38,0-.43h0c-.08-.03-2.78-.03-3.01,0-.22.03-.44.22-.5.44-.03.12-.06.51-.06,1.01,0,.67.02.85.09.99.17.33.19.33,2.03.35Z"/>
      <path class="cls-1" d="M172.33,9.61c.52-.06.97-.09,2.53-.21.38-.03.39-.03.42-.18.01-.08.01-.18,0-.21-.03-.08-.74-.08-1.54,0-.82.09-1.52.11-1.58.05-.03-.03-.05-.19-.04-.37v-.31s.6-.06.6-.06c.32-.03.93-.08,1.35-.1.8-.04.86-.06.86-.26,0-.23-.01-.24-.75-.21-.37.01-.98.06-1.34.1-.4.05-.67.06-.7.03-.02-.02-.04-.18-.03-.36v-.31s.84-.09.84-.09c.46-.04.97-.08,1.15-.09.18,0,.49-.01.7-.03.32-.02.39-.05.45-.14.05-.08.06-.14.02-.24h0c-.06-.14-.1-.15-.66-.08-.16.02-.48.04-.71.04-.23,0-.69.04-1.02.08s-.74.07-.89.07-.29.02-.3.04c-.04.07-.04,2.79,0,2.83.02.02.3,0,.62-.03Z"/>
      <path class="cls-1" d="M193.06,23.84c-.87-1.16-1.76-2.22-2.55-3.01h0c-.35-.36-.5-.48-.59-.48-.15,0-.15.02-.06.36.03.14.1.43.15.64.04.21.11.52.15.68.04.16.1.47.15.68.04.21.11.53.15.71.04.18.08.37.09.45.02.07.23.34.49.61.99,1.04,1.52,1.74,1.7,2.25.09.25.1.42.12,2.17.02,1.91-.05,3.47-.19,3.99-.05.21-.28.46-.84.9-.18.15-.37.3-.41.34-.04.04-.18.16-.3.25-.55.45-2.7,2.29-2.77,2.38-.01.01-.24.22-.51.46-.78.69-1.5,1.44-1.62,1.7-.06.13-.13.23-.16.23-.04,0-.14-.24-.27-.73-.12-.41-.12-1.16,0-1.63.04-.19.12-.47.16-.63.17-.67.43-1.6.58-2.04.04-.11.07-.26.07-.33,0-.07.02-.15.05-.16.03-.01.05-.06.05-.1,0-.05-.04-.02-.12.07-.07.08-.12.18-.12.21s-.02.09-.04.12c-.02.02-.26.55-.52,1.16-.26.61-.5,1.18-.54,1.27-.06.14-.13.31-.3.78-.04.11-.1.27-.14.37-.04.09-.09.28-.13.41-.06.25-.04.35.14.8.02.07.09.22.13.34.08.21.16.38.29.69.04.09.12.29.18.44.14.36.23.37.4.05.06-.13.17-.31.22-.4.05-.09.15-.26.2-.37.25-.46.48-.74.94-1.13.27-.23.54-.47.6-.52.06-.06.21-.19.34-.29.13-.11.31-.26.4-.35.41-.35,1.41-1.18,1.61-1.33.12-.09.24-.19.27-.22.03-.03.27-.23.54-.44.27-.21.52-.42.55-.45.03-.03.2-.17.37-.29.17-.13.31-.24.33-.26.01-.01.1-.08.19-.15.51-.35.83-.72.83-.95,0-.05.03-.19.07-.33.14-.49.31-1.41.44-2.34.2-1.45.25-3.22.14-4.58-.08-.89-.12-.99-.88-1.99Z"/>
      <path class="cls-1" d="M185.55,16.53c.23,0,.3.02.4.12.16.15.32.46.32.62,0,.08-.18.36-.51.8-.56.74-.59.82-.44,1.24.04.11.11.33.15.49.05.16.11.37.15.46.03.09.1.3.15.46.16.56.34.9.48.9.05,0,.02-.32-.05-.63-.03-.12-.09-.39-.13-.61-.04-.21-.11-.52-.15-.68-.04-.16-.07-.4-.08-.54,0-.22.02-.29.28-.68.16-.24.3-.46.31-.48.01-.03.09-.15.17-.27.13-.19.14-.25.13-.56,0-.18-.04-.44-.08-.55-.04-.12-.07-.26-.07-.32,0-.09-.07-.15-.35-.29h0q-.38-.19-.8-.1c-.16.03-.48.1-.71.14-.39.07-.59.11-1.49.3-.72.14-.9.22-1.05.43-.24.36-.22.51.07.51.07,0,.28.03.45.08l.31.08.38-.16c.2-.09.46-.19.57-.23.11-.04.26-.1.34-.14.08-.03.23-.09.34-.14.11-.04.29-.11.41-.16.13-.05.34-.09.5-.09Z"/>
      <path class="cls-1" d="M183.58,40.05c-.03-.08-.09-.22-.13-.32-.09-.2-.36-.87-.46-1.14-.04-.11-.1-.26-.14-.34-.06-.15-.16-.4-.29-.74-.35-.96-.37-1.14-.29-1.83.09-.72.2-1.46.27-1.85.03-.16.07-.4.09-.54.04-.29.13-.75.37-1.95.25-1.25.39-1.92.56-2.58.1-.41.11-.65.01-1.08h0c-.09-.42-.15-.53-.19-.37-.07.23-.31.85-.37.96-.02.05-.07.16-.09.24-.02.08-.08.27-.14.41-.06.15-.12.32-.15.39-.02.07-.09.24-.15.39-.06.15-.13.33-.15.41-.02.08-.12.37-.22.63-.1.27-.19.55-.21.63-.02.08-.06.2-.09.27-.03.07-.09.25-.14.41-.04.16-.11.37-.15.46-.03.09-.1.3-.14.46-.05.16-.11.36-.14.44-.02.08-.06.22-.08.32-.02.09-.06.25-.09.34-.28.91-.28,1.22,0,1.85.67,1.56,1.63,3.47,2.84,5.67.13.24.24.37.28.33.07-.07-.09-.64-.33-1.21-.13-.3-.25-.6-.29-.68Z"/>
      <path class="cls-1" d="M197.23,19.52c0-.26-.15-.52-.38-.69-.33-.24-1.14-.79-1.22-.83-.04-.02-.13-.07-.2-.12-.11-.07-.54-.33-1.04-.63-.05-.03-.14-.08-.19-.11-.05-.03-.23-.13-.39-.22s-.59-.32-.95-.49c-.36-.18-.72-.36-.79-.4h0c-.25-.13-.76-.12-1.03.02-.05.03-.19.09-.32.14-.12.05-.29.12-.37.15-.09.04-.23.1-.32.13-.22.09-.45.19-.82.36-.18.08-.37.17-.43.18-.09.02-.1.05-.06.1.08.1.55.14.82.08.56-.14.78-.2,1.06-.27.59-.16.67-.13,1.34.37.33.24.61.46.62.48.02.03.31.26,1.02.83.15.12.32.25.37.3.11.1.29.18.88.43.48.19.86.37,1.12.5.21.1.41.31.41.42,0,.04.03.18.07.32.17.58.47,2.91.47,3.56,0,.14-.04.37-.1.54-.05.16-.11.33-.13.38-.05.16-.86,1.73-1.09,2.11-.12.21-.31.44-.45.56-.55.46-.52.4-.52,1.03,0,.31.02.56.04.56.06,0,1.02-1.35,1.14-1.61.02-.04.08-.14.13-.22.05-.08.12-.19.15-.24.03-.05.12-.21.2-.34.08-.14.18-.31.22-.39.04-.08.15-.29.24-.46.56-1.01.64-1.21.71-1.8.13-1.08.05-3.36-.13-4.25-.04-.18-.07-.39-.07-.47Z"/>
      <path class="cls-1" d="M181.83,41.18c-.27-.18-.58-.43-.71-.56-.43-.46-.98-1.09-1.47-1.67-.1-.12-.35-.42-.56-.68-.32-.39-1.07-1.34-1.4-1.8-.05-.07-.24-.33-.42-.57-.45-.6-.74-1.03-1.09-1.6l-.3-.49v-.66c.01-.39.05-.84.1-1.1l.09-.44,1.15-1.14c.63-.63,1.22-1.23,1.3-1.34.13-.17.64-1.18,1.04-2.04.07-.16.2-.43.28-.61.27-.58.38-.85.72-1.63.18-.43.36-.85.39-.94.08-.19.09-.46.02-.69-.03-.09-.07-.26-.09-.37-.02-.11-.09-.37-.15-.58-.06-.21-.13-.46-.14-.55h0c-.03-.18-.12-.24-.18-.15-.04.07,0,.63.1,1.24.04.24.07.52.07.62,0,.19-.18.62-.44.99-.08.12-.15.22-.15.23,0,.01-.1.17-.21.34-.12.17-.22.33-.23.36-.03.08-.61.86-1.61,2.2-1.18,1.57-1.62,2.12-2.34,2.96-.29.35-.39.56-.48,1.08-.06.34-.08.6-.17,1.66-.05.56.02.75.54,1.5.19.28,1.14,1.55,1.28,1.71.05.07.31.37.55.68.43.53,1.06,1.27,1.11,1.32.01.01.09.1.17.19.29.36.95,1.07,1.54,1.66.48.48.7.65.97.8,1.14.6,1.23.63,1.2.48,0-.05-.23-.23-.5-.41Z"/>
      <path class="cls-1" d="M174,22.64c.6-.1.6-.09-.12-.82-.35-.35-.66-.66-.7-.68-.04-.02-.36-.07-.7-.1-.45-.05-.63-.08-.65-.13-.03-.08.16-.23.33-.27.07-.01.24-.07.39-.13.15-.05.42-.16.61-.22.19-.06.39-.14.46-.16.07-.02.22-.09.34-.13.12-.05.29-.11.37-.15.08-.03.24-.1.36-.14.11-.04.3-.11.41-.16.11-.04.27-.11.35-.14.08-.03.24-.1.37-.15.23-.09.68-.48.68-.59,0-.09,0-.09-.33.13-.17.12-.44.24-.65.3-.19.05-.46.13-.6.17-.43.12-.76.14-.99.05-.23-.08-.36-.06-.88.1-.24.07-.49.09-.49.03,0-.05.44-.38.56-.41.05-.01.22-.07.37-.13s.32-.12.38-.13c.19-.04.29-.22.32-.61.04-.56.1-.65.71-1.11.3-.22.54-.42.54-.44h0c0-.06-.17-.04-.23.02-.03.03-.16.12-.28.18-.45.25-1.32.8-1.5.94-.1.08-.27.26-.38.39-.59.77-.7.89-1.05,1.14-.21.15-.71.52-1.11.82-1.93,1.45-2.26,1.82-2.03,2.21.16.26.21.24.81-.21.21-.16.39-.33.41-.37.05-.15.36-.49.41-.46.09.06-.04.55-.21.78-.04.06-.23.28-.41.48-.42.47-.55.65-.55.75s.62.92.93,1.23c.37.36.36.36.57-.72.09-.48.18-.58.63-.66.12-.02.32-.06.44-.09.12-.03.4-.09.62-.13.22-.04.57-.11.78-.14.2-.04.54-.1.73-.13Z"/>
      <path class="cls-1" d="M176.29,25.36s-.16.07-.34.21c-.32.25-.94.75-1.14.92-.6.5-.75.64-.74.67.03.03.36-.06.6-.17.09-.04.18-.07.21-.07s.14-.04.26-.1c.16-.07.29-.2.55-.55.18-.25.4-.55.47-.66h0c.08-.12.13-.23.12-.26Z"/>
      <path class="cls-1" d="M200.29,7.36s-.27-.07-.53-.1c-.25-.03-.69-.09-.97-.13-.28-.04-.61-.07-.73-.07s-.43-.03-.68-.07h0c-.81-.13-.9-.1-.87.2.01.13.03.14.36.19.19.03.54.07.78.09.24.02.47.05.5.08.04.03.06.33.06,1.18,0,1.25,0,1.26.3,1.23h.16s.01-1.13.01-1.13c0-.63.03-1.14.06-1.16.06-.06.51-.04,1.04.05.24.04.46.06.5.05.09-.03.09-.34,0-.41Z"/>
      <path class="cls-1" d="M175.11,29.9s-.11-.02-.26.01c-.31.09-.69.18-.85.2-.11.02-.14,0-.2-.12-.04-.08-.08-.2-.08-.27s-.03-.27-.07-.45c-.04-.18-.07-.43-.06-.57.01-.23.02-.25.16-.3.08-.02.22-.07.32-.1.09-.03.25-.09.34-.12.09-.03.24-.08.32-.1.08-.02.37-.12.63-.22.27-.1.56-.2.64-.22.15-.04.5-.36.5-.44,0-.02.06-.12.13-.22s.15-.23.17-.28c.02-.05.07-.14.1-.19.11-.16.26-.42.45-.78.1-.19.24-.43.3-.54.29-.51.37-.72.34-.88-.02-.09-.06-.18-.1-.22-.04-.03-.07-.09-.07-.12,0-.08-.23-.25-.39-.29-.07-.01-.27-.06-.46-.11-.19-.04-.37-.1-.42-.12-.05-.03-.14-.05-.19-.05s-.22-.03-.37-.07c-.14-.04-.37-.11-.52-.15h0c-.3-.08-.6-.1-.64-.02-.03.05,0,.06.19.12.13.03.85.29,1.19.42.15.06.32.12.39.15.39.13.46.18.55.44l.09.25-.18.34c-.1.19-.26.47-.37.63-.1.16-.19.3-.19.31,0,.06-.86,1.15-.96,1.22-.18.12-1.28.5-1.72.59-.23.05-.3.02-.71-.33-.34-.29-.35-.3-.41-.19-.08.15-.03.86.06,1.04.12.23.22.51.31.88.13.55.22.91.31,1.22.08.27.09.29.24.31.09,0,.26-.01.38-.06.13-.04.36-.11.51-.16.29-.09.66-.37.6-.45Z"/>
    </g>
  </g>
</svg>