<?xml version="1.0" encoding="UTF-8"?>
<svg xmlns="http://www.w3.org/2000/svg" width="169" height="123" viewBox="0 0 169 123" fill="none">
  <path d="M147.26 54.68L124.35 53.11C123.73 51.83 122.43 50.94 120.91 50.94C119.3 50.94 117.93 51.93 117.36 53.34H98.7L102.52 47.2C103.38 45.81 102.38 44.01 100.75 44.01H59.13C58.53 44.01 58.4 44.85 58.97 45.03L74.1 49.78C74.79 50 75.08 50.81 74.69 51.42L73.45 53.34H36.37L29.99 54.72H29.96L21.56 56.54L21.29 56.6H71.62C70.84 59.42 72.93 62.47 76.11 62.47H90.89C92.23 62.47 93.47 61.78 94.18 60.64L96.69 56.6H117.56C118.21 57.8 119.47 58.63 120.93 58.63C121.2 58.63 121.45 58.6 121.7 58.55C122.94 58.3 123.95 57.45 124.45 56.32L147.28 54.69L147.26 54.68Z" fill="#F4B931"></path>
  <path d="M44.26 38.37C44.67 39.03 45.53 39.25 46.2 38.86L47.14 38.32C47.47 38.13 47.87 38.37 47.86 38.75L47.83 39.87C47.81 40.55 48.42 41.09 49.1 40.98L52 40.53C52.06 40.53 52.13 40.5 52.18 40.46L55.87 38.17C56.2 37.97 56.62 38.21 56.61 38.59L56.55 41.08C56.55 41.25 56.63 41.4 56.77 41.5H103.41L106.88 37.75C107.88 36.67 108.45 35.27 108.48 33.8L108.57 30.24C108.57 30.01 108.41 29.8 108.18 29.76L105.68 29.25C105.25 29.16 104.85 28.96 104.52 28.67L100.77 25.39C100.69 25.32 100.59 25.28 100.49 25.27L92.82 24.66C92.71 24.66 92.6 24.6 92.52 24.52L89.73 21.81C89.65 21.73 89.53 21.68 89.42 21.67L87.24 21.57C87.1 21.57 86.96 21.62 86.87 21.72L86.52 22.09C86.14 22.49 85.5 22.05 85.73 21.55C85.88 21.23 85.65 20.86 85.3 20.86H82.67C82.55 20.85 82.44 20.89 82.35 20.96L80.11 22.86L83.31 19.09C83.38 19.01 83.42 18.9 83.43 18.79L83.46 17.42C83.46 17.32 83.43 17.22 83.37 17.13L81.21 14C81.01 13.71 80.59 13.72 80.4 14.02L78.77 16.64C78.7 16.76 78.57 16.84 78.43 16.86L68.18 18.41C67.93 18.45 67.69 18.28 67.63 18.03L66.87 14.32C66.86 14.26 66.83 14.2 66.79 14.14L66.1 13.15C65.67 12.53 64.9 12.26 64.18 12.46L59.42 13.82C58.52 14.08 58.09 15.11 58.55 15.93L58.99 16.72C59.34 17.34 59.11 18.13 58.49 18.47L56.08 19.8C55.51 20.12 54.79 19.98 54.38 19.47L53.37 18.22C53.26 18.08 53.07 18.01 52.89 18.05L49.34 18.8C49.12 18.85 48.96 19.04 48.96 19.26L48.72 28.93C48.72 29.15 48.56 29.34 48.34 29.39L45.6 30.01C44.56 30.25 43.68 30.96 43.24 31.93L42.81 32.88C42.28 34.03 42.37 35.36 43.04 36.44L44.24 38.37H44.26Z" fill="#F4B931"></path>
  <path d="M75.6701 66.71C75.7001 66.87 75.6401 67.04 75.5201 67.15L71.2401 71.14C70.6901 71.65 70.6801 72.52 71.2201 73.04L75.0301 76.74C75.6301 77.32 76.6001 77.25 77.1001 76.58L83.7501 67.84C84.1501 67.31 84.4001 66.68 84.4601 66.02L84.5101 65.44H75.4401L75.6601 66.7L75.6701 66.71Z" fill="#F4B931"></path>
  <path d="M35.6601 94.29C35.6601 95.27 35.5001 96.16 35.1801 96.95C34.8601 97.74 34.4001 98.41 33.8101 98.96C33.2201 99.51 32.5001 99.94 31.6601 100.24C30.8201 100.54 29.8801 100.69 28.8401 100.69C27.1801 100.69 25.7001 100.42 24.4001 99.89C23.1001 99.36 22.0301 98.75 21.1901 98.07L23.6801 95.58C24.3401 96.18 25.0801 96.64 25.9001 96.96C26.4001 97.16 26.8701 97.29 27.3101 97.35C27.7501 97.41 28.1101 97.44 28.3901 97.44C28.9101 97.44 29.3801 97.38 29.8201 97.25C30.2501 97.12 30.6201 96.95 30.9501 96.72C31.6301 96.22 31.9701 95.56 31.9701 94.74C31.9701 94.24 31.7901 93.79 31.4301 93.39C31.1501 93.07 30.7901 92.81 30.3501 92.61C29.9901 92.41 29.6101 92.25 29.2101 92.13C28.8101 92.01 28.4501 91.9 28.1301 91.8C28.0301 91.76 27.9401 91.74 27.8601 91.73C27.7801 91.73 27.7101 91.7 27.6501 91.65C27.6101 91.65 27.5501 91.63 27.4701 91.59C27.0501 91.47 26.4401 91.26 25.6501 90.96C24.8601 90.66 24.0701 90.25 23.2901 89.73C21.4701 88.51 20.5601 87.01 20.5601 85.23C20.5601 84.05 20.7701 83.05 21.1801 82.24C21.5901 81.43 22.1301 80.77 22.7901 80.26C23.4501 79.75 24.1901 79.38 25.0001 79.16C25.8101 78.94 26.6101 78.83 27.3901 78.83C28.8301 78.83 30.0401 79 31.0201 79.34C32.0001 79.68 32.7801 80.02 33.3601 80.36C33.6601 80.54 33.9201 80.72 34.1301 80.89C34.3401 81.06 34.5301 81.22 34.6901 81.36L32.1401 83.94C31.6001 83.4 31.0501 82.99 30.4901 82.71C29.6501 82.31 28.7701 82.11 27.8501 82.11C27.4501 82.11 27.0501 82.16 26.6501 82.26C26.2501 82.36 25.9001 82.49 25.6001 82.65C24.7201 83.19 24.2801 83.9 24.2801 84.78C24.2801 85.32 24.4601 85.78 24.8201 86.16C25.0801 86.46 25.4401 86.73 25.9001 86.97C26.2801 87.17 26.6801 87.33 27.1001 87.45C27.5201 87.57 27.9101 87.68 28.2701 87.78L28.6301 87.87C28.7301 87.91 28.9201 87.97 29.2001 88.05C29.4801 88.13 29.8101 88.25 30.1901 88.41C30.5701 88.57 30.9901 88.76 31.4401 88.98C31.8901 89.2 32.3401 89.46 32.7801 89.76C34.7201 91.04 35.6901 92.55 35.6901 94.29" fill="#1a1a2e"></path>
  <path d="M42.2602 79.31H38.6602V100.3H42.2602V79.31Z" fill="#1a1a2e"></path>
  <path d="M61.8101 79.25V100.26H57.9101L49.4701 85.88V100.26H45.8701V79.25H49.7701L58.2101 93.63V79.25H61.8101Z" fill="#1a1a2e"></path>
  <path d="M87.15 100.29H83.19L81.56 96.69L79.94 93.09L75.68 83.66L71.42 93.09H76.88L78.5 96.69H69.8L68.17 100.29H64.21L73.7 79.28H77.66L87.15 100.29Z" fill="#1a1a2e"></path>
  <path d="M107.32 97.47C106.32 98.47 105.16 99.26 103.84 99.83C102.52 100.4 101.1 100.69 99.5801 100.69C98.0601 100.69 96.6601 100.4 95.3301 99.83C94.0001 99.26 92.8401 98.48 91.8501 97.49C90.8601 96.5 90.0801 95.34 89.5101 94.01C88.9401 92.68 88.6501 91.26 88.6501 89.76C88.6501 88.26 88.9401 86.84 89.5101 85.51C90.0801 84.18 90.8601 83.02 91.8501 82.03C92.8401 81.04 94.0001 80.26 95.3301 79.69C96.6601 79.12 98.0801 78.83 99.5801 78.83C101.08 78.83 102.52 79.12 103.84 79.69C105.16 80.26 106.32 81.05 107.32 82.05L104.77 84.6C104.07 83.9 103.28 83.36 102.4 82.99C101.52 82.62 100.58 82.43 99.5801 82.43C98.5801 82.43 97.6701 82.61 96.7901 82.99C95.9101 83.36 95.1201 83.9 94.4201 84.6C93.7201 85.3 93.1801 86.09 92.8101 86.97C92.4401 87.85 92.2501 88.78 92.2501 89.76C92.2501 90.74 92.4301 91.68 92.8101 92.57C93.1801 93.46 93.7201 94.26 94.4201 94.96C95.1201 95.66 95.9101 96.19 96.7901 96.55C97.6701 96.91 98.6001 97.09 99.5801 97.09C100.56 97.09 101.52 96.91 102.4 96.55C103.28 96.19 104.07 95.66 104.77 94.96L107.32 97.48V97.47Z" fill="#1a1a2e"></path>
  <path d="M113.63 82.88V87.99H121.46L122.36 91.59H113.63V96.69H124.16V100.29H110.02V79.28H124.16V82.88H113.63Z" fill="#1a1a2e"></path>
  <path d="M148.08 88.86C148.11 89.16 148.12 89.46 148.12 89.76C148.12 91.26 147.84 92.68 147.26 94.01C146.69 95.34 145.91 96.5 144.92 97.49C143.93 98.48 142.77 99.26 141.44 99.83C140.11 100.4 138.69 100.69 137.19 100.69C135.69 100.69 134.27 100.41 132.94 99.83C131.61 99.26 130.45 98.48 129.46 97.49C128.47 96.5 127.69 95.34 127.12 94.01C126.55 92.68 126.26 91.26 126.26 89.76C126.26 88.26 126.55 86.84 127.12 85.51C127.69 84.18 128.47 83.02 129.46 82.03C130.45 81.04 131.61 80.26 132.94 79.69C134.27 79.12 135.69 78.83 137.19 78.83C138.69 78.83 140.13 79.12 141.45 79.69C142.77 80.26 143.92 81.05 144.9 82.05L142.38 84.6C141.68 83.9 140.88 83.36 139.99 82.99C139.1 82.62 138.16 82.43 137.18 82.43C136.2 82.43 135.27 82.62 134.39 82.99C133.51 83.36 132.72 83.9 132.02 84.6C131.32 85.3 130.78 86.09 130.41 86.97C130.04 87.85 129.85 88.78 129.85 89.76C129.85 90.74 130.03 91.68 130.41 92.57C130.78 93.46 131.32 94.26 132.02 94.96C132.72 95.66 133.51 96.19 134.39 96.55C135.27 96.91 136.2 97.09 137.18 97.09C138.16 97.09 139.1 96.91 139.99 96.55C140.88 96.19 141.68 95.66 142.38 94.96C143.32 93.98 143.96 92.85 144.3 91.57H134.57L135.47 87.97H147.96C148 88.27 148.04 88.57 148.07 88.87" fill="#1a1a2e"></path>
  <path d="M20.79 109.4H21.07C21.07 109.9 21.46 110.2 22.05 110.2C22.55 110.2 22.92 109.92 22.92 109.51C22.92 109.05 22.5 108.89 22.04 108.71C21.49 108.5 20.9 108.33 20.9 107.63C20.9 107.06 21.4 106.7 21.99 106.7C22.58 106.7 23.1 107.07 23.1 107.69H22.82C22.82 107.25 22.47 106.96 21.98 106.96C21.49 106.96 21.17 107.23 21.17 107.62C21.17 108.09 21.59 108.25 22.06 108.43C22.61 108.64 23.2 108.84 23.2 109.5C23.2 110.09 22.67 110.46 22.05 110.46C21.34 110.46 20.79 110.08 20.79 109.39" fill="#1a1a2e"></path>
  <path d="M24.9301 106.77H24.6501V110.41H24.9301V106.77Z" fill="#1a1a2e"></path>
  <path d="M28.9901 106.77V110.41H28.7501L26.8901 107.32V110.41H26.6101V106.77H26.8501L28.7101 109.86V106.77H28.9901Z" fill="#1a1a2e"></path>
  <path d="M33.8602 108.59C33.8602 109.59 33.1502 110.41 32.1402 110.41H30.6702V106.77H32.1402C33.1402 106.77 33.8602 107.59 33.8602 108.59ZM33.5902 108.59C33.5902 107.73 33.0002 107.03 32.1402 107.03H30.9402V110.15H32.1402C33.0002 110.15 33.5902 109.45 33.5902 108.59Z" fill="#1a1a2e"></path>
  <path d="M35.6201 106.77H35.3401V110.41H35.6201V106.77Z" fill="#1a1a2e"></path>
  <path d="M37.0901 108.59C37.0901 107.55 37.8801 106.71 38.9801 106.71C39.7601 106.71 40.4401 107.19 40.6701 107.87H40.3701C40.1601 107.34 39.6201 106.97 38.9801 106.97C38.0201 106.97 37.3601 107.69 37.3601 108.58C37.3601 109.47 38.0201 110.19 38.9801 110.19C39.6101 110.19 40.1601 109.82 40.3701 109.29H40.6701C40.4401 109.98 39.7701 110.45 38.9801 110.45C37.8701 110.45 37.0901 109.61 37.0901 108.57" fill="#1a1a2e"></path>
  <path d="M44.0701 109.49H42.2501L41.8901 110.42H41.6001L43.0101 106.78H43.3001L44.7101 110.42H44.4201L44.0701 109.49ZM43.9701 109.23L43.1601 107.11L42.3501 109.23H43.9701Z" fill="#1a1a2e"></path>
  <path d="M47.7902 107.03H46.7502V110.41H46.4702V107.03H45.4302V106.77H46.7502H47.7902V107.03Z" fill="#1a1a2e"></path>
  <path d="M48.73 108.59C48.73 107.55 49.56 106.71 50.61 106.71C51.66 106.71 52.49 107.55 52.49 108.59C52.49 109.63 51.66 110.47 50.61 110.47C49.56 110.47 48.73 109.63 48.73 108.59ZM52.2 108.59C52.2 107.7 51.5 106.98 50.6 106.98C49.7 106.98 49 107.7 49 108.59C49 109.48 49.7 110.2 50.6 110.2C51.5 110.2 52.2 109.48 52.2 108.59Z" fill="#1a1a2e"></path>
  <path d="M58.5001 106.77V110.41H58.2601L56.4001 107.32V110.41H56.1301V106.77H56.3701L58.2201 109.86V106.77H58.5001Z" fill="#1a1a2e"></path>
  <path d="M62.2801 109.49H60.4601L60.1001 110.42H59.8101L61.2201 106.78H61.5101L62.9201 110.42H62.6301L62.2801 109.49ZM62.1801 109.23L61.3701 107.11L60.5601 109.23H62.1801Z" fill="#1a1a2e"></path>
  <path d="M63.9001 108.59C63.9001 107.55 64.6801 106.71 65.7901 106.71C66.5701 106.71 67.2501 107.19 67.4801 107.87H67.1801C66.9701 107.34 66.4301 106.97 65.7901 106.97C64.8301 106.97 64.1701 107.69 64.1701 108.58C64.1701 109.47 64.8301 110.19 65.7901 110.19C66.4201 110.19 66.9701 109.82 67.1801 109.29H67.4801C67.2501 109.98 66.5801 110.45 65.7901 110.45C64.6801 110.45 63.9001 109.61 63.9001 108.57" fill="#1a1a2e"></path>
  <path d="M69.1601 106.77H68.8801V110.41H69.1601V106.77Z" fill="#1a1a2e"></path>
  <path d="M70.6401 108.59C70.6401 107.55 71.4701 106.71 72.5201 106.71C73.5701 106.71 74.4001 107.55 74.4001 108.59C74.4001 109.63 73.5701 110.47 72.5201 110.47C71.4701 110.47 70.6401 109.63 70.6401 108.59ZM74.1101 108.59C74.1101 107.7 73.4101 106.98 72.5101 106.98C71.6101 106.98 70.9101 107.7 70.9101 108.59C70.9101 109.48 71.6101 110.2 72.5101 110.2C73.4101 110.2 74.1101 109.48 74.1101 108.59Z" fill="#1a1a2e"></path>
  <path d="M78.2401 106.77V110.41H78.0001L76.1401 107.32V110.41H75.8701V106.77H76.1101L77.9601 109.86V106.77H78.2401Z" fill="#1a1a2e"></path>
  <path d="M82.02 109.49H80.2L79.84 110.42H79.55L80.96 106.78H81.25L82.66 110.42H82.37L82.02 109.49ZM81.92 109.23L81.11 107.11L80.3 109.23H81.92Z" fill="#1a1a2e"></path>
  <path d="M85.97 110.15V110.41H83.97V106.77H84.25V110.15H85.97Z" fill="#1a1a2e"></path>
  <path d="M92.67 108.59C92.67 109.59 91.96 110.41 90.95 110.41H89.48V106.77H90.95C91.95 106.77 92.67 107.59 92.67 108.59ZM92.4 108.59C92.4 107.73 91.81 107.03 90.95 107.03H89.75V110.15H90.95C91.81 110.15 92.4 109.45 92.4 108.59Z" fill="#1a1a2e"></path>
  <path d="M93.9399 108.59C93.9399 107.55 94.7699 106.71 95.8199 106.71C96.8699 106.71 97.6999 107.55 97.6999 108.59C97.6999 109.63 96.8699 110.47 95.8199 110.47C94.7699 110.47 93.9399 109.63 93.9399 108.59ZM97.4199 108.59C97.4199 107.7 96.7199 106.98 95.8199 106.98C94.9199 106.98 94.2199 107.7 94.2199 108.59C94.2199 109.48 94.9199 110.2 95.8199 110.2C96.7199 110.2 97.4199 109.48 97.4199 108.59Z" fill="#1a1a2e"></path>
  <path d="M98.9202 109.4H99.2002C99.2002 109.9 99.5902 110.2 100.18 110.2C100.68 110.2 101.05 109.92 101.05 109.51C101.05 109.05 100.63 108.89 100.17 108.71C99.6202 108.5 99.0302 108.33 99.0302 107.63C99.0302 107.06 99.5302 106.7 100.12 106.7C100.71 106.7 101.23 107.07 101.23 107.69H100.95C100.95 107.25 100.6 106.96 100.11 106.96C99.6202 106.96 99.3002 107.23 99.3002 107.62C99.3002 108.09 99.7202 108.25 100.19 108.43C100.74 108.64 101.33 108.84 101.33 109.5C101.33 110.09 100.8 110.46 100.18 110.46C99.4702 110.46 98.9202 110.08 98.9202 109.39" fill="#1a1a2e"></path>
  <path d="M104.75 108.59C104.75 107.55 105.53 106.71 106.64 106.71C107.42 106.71 108.1 107.19 108.33 107.87H108.03C107.82 107.34 107.28 106.97 106.64 106.97C105.68 106.97 105.02 107.69 105.02 108.58C105.02 109.47 105.68 110.19 106.64 110.19C107.27 110.19 107.82 109.82 108.03 109.29H108.33C108.1 109.98 107.43 110.45 106.64 110.45C105.53 110.45 104.75 109.61 104.75 108.57" fill="#1a1a2e"></path>
  <path d="M111.76 110.15V110.41H109.86H109.74V106.77H110.01H111.74V107.03H110.01V108.45H111.61V108.71H110.01V110.15H111.76Z" fill="#1a1a2e"></path>
  <path d="M116.55 108.62V110.41H116.27V109.77C116 110.24 115.45 110.47 114.88 110.47C113.77 110.47 112.99 109.63 112.99 108.59C112.99 107.55 113.77 106.71 114.87 106.71C115.65 106.71 116.33 107.19 116.55 107.87H116.25C116.04 107.34 115.49 106.97 114.86 106.97C113.92 106.97 113.26 107.69 113.26 108.58C113.26 109.47 113.91 110.19 114.88 110.19C115.6 110.19 116.24 109.8 116.27 109.06V108.86H114.94V108.6H116.55V108.62Z" fill="#1a1a2e"></path>
  <path d="M117.94 108.59C117.94 107.55 118.77 106.71 119.82 106.71C120.87 106.71 121.7 107.55 121.7 108.59C121.7 109.63 120.87 110.47 119.82 110.47C118.77 110.47 117.94 109.63 117.94 108.59ZM121.42 108.59C121.42 107.7 120.72 106.98 119.82 106.98C118.92 106.98 118.22 107.7 118.22 108.59C118.22 109.48 118.92 110.2 119.82 110.2C120.72 110.2 121.42 109.48 121.42 108.59Z" fill="#1a1a2e"></path>
  <path d="M125.55 106.77V110.41H125.31L123.45 107.32V110.41H123.17V106.77H123.41L125.27 109.86V106.77H125.55Z" fill="#1a1a2e"></path>
  <path d="M129.62 106.77V110.41H129.34V108.67H127.51V110.41H127.23V106.77H127.51V108.41H129.34V106.77H129.62Z" fill="#1a1a2e"></path>
  <path d="M133.33 110.15V110.41H131.42H131.3V106.77H131.58H133.3V107.03H131.58V108.45H133.17V108.71H131.58V110.15H133.33Z" fill="#1a1a2e"></path>
  <path d="M135.07 106.77H134.79V110.41H135.07V106.77Z" fill="#1a1a2e"></path>
  <path d="M137.91 108.92H137.02V110.41H136.74V106.77H137.99C138.58 106.77 139.06 107.25 139.06 107.85C139.06 108.35 138.7 108.79 138.22 108.89L139.56 110.41H139.21L137.9 108.92H137.91ZM137.02 108.66H137.99C138.43 108.66 138.79 108.3 138.79 107.85C138.79 107.4 138.43 107.03 137.99 107.03H137.02V108.66Z" fill="#1a1a2e"></path>
  <path d="M140.42 108.59C140.42 107.55 141.25 106.71 142.3 106.71C143.35 106.71 144.18 107.55 144.18 108.59C144.18 109.63 143.35 110.47 142.3 110.47C141.25 110.47 140.42 109.63 140.42 108.59ZM143.9 108.59C143.9 107.7 143.2 106.98 142.3 106.98C141.4 106.98 140.7 107.7 140.7 108.59C140.7 109.48 141.4 110.2 142.3 110.2C143.2 110.2 143.9 109.48 143.9 108.59Z" fill="#1a1a2e"></path>
  <path d="M145.4 109.4H145.68C145.68 109.9 146.07 110.2 146.66 110.2C147.16 110.2 147.53 109.92 147.53 109.51C147.53 109.05 147.11 108.89 146.65 108.71C146.1 108.5 145.51 108.33 145.51 107.63C145.51 107.06 146.01 106.7 146.6 106.7C147.19 106.7 147.71 107.07 147.71 107.69H147.43C147.43 107.25 147.08 106.96 146.59 106.96C146.1 106.96 145.78 107.23 145.78 107.62C145.78 108.09 146.2 108.25 146.67 108.43C147.22 108.64 147.81 108.84 147.81 109.5C147.81 110.09 147.28 110.46 146.66 110.46C145.95 110.46 145.4 110.08 145.4 109.39" fill="#1a1a2e"></path>
</svg>
