<svg xmlns="http://www.w3.org/2000/svg" id="Camada_2" viewBox="0 0 545.48 106.86"><defs><style>      .cls-1 {        fill: #6c6e71;      }      .cls-2 {        fill: #f2b04d;      }    </style></defs><g id="Camada_1-2" data-name="Camada_1"><g><g><path class="cls-1" d="M46.26,36.45h-19.7v-13.14h53.65v13.14h-19.7v51.62h-14.25v-51.62Z"></path><path class="cls-1" d="M88.81,23.32h48.84v12.67h-34.69v13.14h30.53v12.67h-30.53v13.6h35.15v12.67h-49.31V23.32Z"></path><path class="cls-1" d="M145.6,55.88v-.18c0-18.41,13.88-33.49,33.76-33.49,12.21,0,19.52,4.07,25.53,9.99l-9.07,10.45c-4.99-4.53-10.08-7.31-16.56-7.31-10.92,0-18.78,9.07-18.78,20.17v.19c0,11.1,7.68,20.35,18.78,20.35,7.4,0,11.93-2.96,17.02-7.59l9.07,9.16c-6.66,7.12-14.06,11.56-26.55,11.56-19.06,0-33.21-14.71-33.21-33.3Z"></path><path class="cls-1" d="M214.42,23.32h13.14l30.34,39.87V23.32h14.06v64.75h-12.12l-31.36-41.16v41.16h-14.06V23.32Z"></path><path class="cls-1" d="M282.32,55.88v-.18c0-18.41,14.52-33.49,34.5-33.49s34.32,14.89,34.32,33.3v.19c0,18.41-14.52,33.49-34.5,33.49s-34.32-14.89-34.32-33.3ZM336.24,55.88v-.18c0-11.1-8.14-20.35-19.61-20.35s-19.43,9.07-19.43,20.17v.19c0,11.1,8.14,20.35,19.61,20.35s19.43-9.07,19.43-20.17Z"></path><path class="cls-1" d="M361.49,23.32h26.46c15.45,0,24.79,9.16,24.79,22.39v.18c0,14.99-11.66,22.76-26.18,22.76h-10.82v19.43h-14.25V23.32ZM387.02,55.97c7.12,0,11.29-4.26,11.29-9.81v-.18c0-6.38-4.44-9.81-11.56-9.81h-11.01v19.8h11.29Z"></path><path class="cls-1" d="M419.95,60.32V23.32h14.25v36.63c0,10.55,5.27,16,13.97,16s13.97-5.27,13.97-15.54V23.32h14.25v36.54c0,19.61-11.01,29.23-28.4,29.23s-28.03-9.71-28.03-28.77Z"></path><path class="cls-1" d="M485.72,55.88v-.18c0-18.41,13.88-33.49,33.76-33.49,12.21,0,19.52,4.07,25.53,9.99l-9.07,10.45c-4.99-4.53-10.08-7.31-16.56-7.31-10.92,0-18.78,9.07-18.78,20.17v.19c0,11.1,7.68,20.35,18.78,20.35,7.4,0,11.93-2.96,17.02-7.59l9.07,9.16c-6.66,7.12-14.06,11.56-26.55,11.56-19.06,0-33.21-14.71-33.21-33.3Z"></path></g><path class="cls-2" d="M53.43,106.86C23.97,106.86,0,82.89,0,53.43S23.97,0,53.43,0c13.3,0,26.04,4.92,35.88,13.84.69.63.75,1.7.12,2.4-.63.69-1.71.75-2.4.12-9.22-8.36-21.15-12.96-33.6-12.96C25.84,3.4,3.4,25.84,3.4,53.43s22.45,50.03,50.03,50.03c11.14,0,21.67-3.58,30.48-10.35.74-.57,1.81-.43,2.38.31.57.74.43,1.81-.31,2.38-9.4,7.23-20.66,11.05-32.55,11.05Z"></path></g></g></svg>