<svg xmlns="http://www.w3.org/2000/svg" id="logotipo" viewBox="0 0 197.643 99" xmlns="http://www.w3.org/2000/svg">
    <defs>
      <clipPath id="clip-path">
        <rect id="Retângulo_634" data-name="Retângulo 634" width="197.643" height="99" fill="none"/>
      </clipPath>
    </defs>
    <g id="Grupo_2087" data-name="Grupo 2087" clip-path="url(#clip-path)">
      <path id="Caminho_704" data-name="Caminho 704" d="M232.043,73.507l14.665-46.054c4.2-12.7,12.919-19.378,27.633-18.043l-6.772,24.436c-4.35,14.962,16.086,13.415,20.517-.3l7.17-24.139c6.359-.28,12.139-2.6,18-9.409,0,0-9.377,32.736-13.15,43.436-4.788,13.576-13.939,17.613-24.27,18.043h-21.8q-14.656.1-20.3,12.226Z" transform="translate(-162.633)" fill="#c80010" fill-rule="evenodd"/>
      <path id="Caminho_705" data-name="Caminho 705" d="M105.4,268.239l3.476-12.507,7.514,12.507h7.958l7.514-25.277h-8.882l-3.542,12.605L112,242.962h-8.04l-7.514,25.277Z" transform="translate(-67.598 -170.286)" fill="#007d2e" fill-rule="evenodd"/>
      <path id="Caminho_706" data-name="Caminho 706" d="M35.4,224.355c-5.084.108-8.642,2.138-11.276,6.933l-3.805,12.589c-1.5,5.274-11.436,6.526-9.8-.428l4.745-16.56c-3.477,2.438-7.053,3.691-10.743,3.214L.3,244.882c-3.479,15.033,24.124,14.456,28.088,2.348Z" transform="translate(0 -157.245)" fill="#007d2e" fill-rule="evenodd"/>
      <path id="Caminho_707" data-name="Caminho 707" d="M207.8,268.239l7.53-25.277h-8.882l-7.431,25.277Z" transform="translate(-139.486 -170.286)" fill="#00652c" fill-rule="evenodd"/>
      <path id="Caminho_708" data-name="Caminho 708" d="M337.8,242.849l-4.235,14.7c-1.3,5.949,7.943,4.515,9.1-.247l4.169-14.368,8.815.032c-2.059,7.086-2.4,8.375-4.58,15.522-4.087,13.382-29.824,14.238-26.808.363l4.713-15.984Z" transform="translate(-227.093 -170.207)" fill="#c80010" fill-rule="evenodd"/>
      <path id="Caminho_709" data-name="Caminho 709" d="M267.657,224.928c-8.09-8.008-22.31-.758-22.854,7.826-.494,7.746,10.248,8.157,7.349,12.046-1.071,1.417-7.711,3.032-9.491-4.729l-3.378,10.364c4.614,4.828,18.6,4.136,22.821-3.493,2.664-4.81,1.94-7.781-.7-10.227-2.4-2.221-5.327-2.938-5.979-4.434-1.634-3.745,7.994-5.329,9.382,2.894Z" transform="translate(-167.708 -155.219)" fill="#c80010" fill-rule="evenodd"/>
      <path id="Caminho_710" data-name="Caminho 710" d="M494.108,268.149h19.113l1.664-5.767h-9.853l1.136-4.417h9.277l1.4-5.14h-9.277l1.1-4h10.15L520.5,242.9H501.753Z" transform="translate(-346.308 -170.245)" fill="#c80010" fill-rule="evenodd"/>
      <path id="Caminho_711" data-name="Caminho 711" d="M432.657,243.177H419.427l-7.515,25.162h8.931l2.587-8.9c18.6,1.814,22.409-16.477,9.227-16.263m-5.615,11.2c-.49,0-1.981-.082-1.981-.082l1.878-6.391s1.489-.049,2.121-.049a2.692,2.692,0,0,1,2.315,1.191c1.163,1.669-.8,5.33-4.334,5.33" transform="translate(-288.699 -170.435)" fill="#c80010" fill-rule="evenodd"/>
      <path id="Caminho_712" data-name="Caminho 712" d="M592.288,268.4h0c-16.357,2.474-10.417-5.309-14.921-10.343a.6.6,0,0,0-.41-.191c-.728,0-1.89,0-1.89,0L572,268.339h-8.93l7.513-25.162h13.231c10.249-.165,10.529,9.853,1.384,13.445,1.614,1.154,2.554,2.7,3.147,5.454.758,3.444,1.846,5.8,3.938,6.327M578.3,253.643c-.49,0-1.771-.042-1.771-.042l1.6-5.7s1.556-.043,2.188-.043a2.8,2.8,0,0,1,2.315,1.056c1.163,1.48-.8,4.726-4.334,4.726" transform="translate(-394.645 -170.436)" fill="#c80010" fill-rule="evenodd"/>
    </g>
  </svg>